<svg xmlns="http://www.w3.org/2000/svg" xmlns:xlink="http://www.w3.org/1999/xlink" width="500" zoomAndPan="magnify" viewBox="0 0 375 374.999991" height="500" preserveAspectRatio="xMidYMid meet" version="1.0"><defs><clipPath id="5e3b627fda"><path d="M 10.972656 10.972656 L 364.222656 10.972656 L 364.222656 364.222656 L 10.972656 364.222656 Z M 10.972656 10.972656 " clip-rule="nonzero"/></clipPath><clipPath id="696f985861"><path d="M 150.402344 150.402344 L 224.597656 150.402344 L 224.597656 224.597656 L 150.402344 224.597656 Z M 150.402344 150.402344 " clip-rule="nonzero"/></clipPath><clipPath id="a26ab5fe3a"><path d="M 187.5 150.402344 C 167.011719 150.402344 150.402344 167.011719 150.402344 187.5 C 150.402344 207.988281 167.011719 224.597656 187.5 224.597656 C 207.988281 224.597656 224.597656 207.988281 224.597656 187.5 C 224.597656 167.011719 207.988281 150.402344 187.5 150.402344 Z M 187.5 150.402344 " clip-rule="nonzero"/></clipPath></defs><path fill="#fcf6e5" d="M 363.667969 187.496094 C 363.667969 190.378906 363.597656 193.261719 363.457031 196.140625 C 363.316406 199.019531 363.101562 201.894531 362.820312 204.765625 C 362.539062 207.632812 362.183594 210.492188 361.761719 213.347656 C 361.339844 216.199219 360.847656 219.039062 360.285156 221.867188 C 359.722656 224.695312 359.089844 227.507812 358.390625 230.300781 C 357.6875 233.097656 356.921875 235.878906 356.082031 238.636719 C 355.246094 241.394531 354.34375 244.132812 353.371094 246.847656 C 352.398438 249.5625 351.363281 252.25 350.257812 254.914062 C 349.15625 257.578125 347.988281 260.214844 346.753906 262.820312 C 345.523438 265.425781 344.226562 268 342.867188 270.542969 C 341.507812 273.085938 340.085938 275.59375 338.605469 278.066406 C 337.121094 280.539062 335.582031 282.976562 333.980469 285.371094 C 332.375 287.769531 330.71875 290.125 329 292.441406 C 327.28125 294.757812 325.507812 297.03125 323.679688 299.257812 C 321.851562 301.488281 319.96875 303.671875 318.03125 305.808594 C 316.09375 307.941406 314.109375 310.03125 312.070312 312.070312 C 310.03125 314.109375 307.941406 316.09375 305.808594 318.03125 C 303.671875 319.96875 301.488281 321.851562 299.257812 323.679688 C 297.03125 325.507812 294.757812 327.28125 292.441406 329 C 290.125 330.71875 287.769531 332.375 285.371094 333.980469 C 282.976562 335.582031 280.539062 337.121094 278.066406 338.605469 C 275.59375 340.085938 273.085938 341.507812 270.542969 342.867188 C 268 344.226562 265.425781 345.523438 262.820312 346.753906 C 260.214844 347.988281 257.578125 349.15625 254.914062 350.257812 C 252.25 351.363281 249.5625 352.398438 246.847656 353.371094 C 244.132812 354.34375 241.394531 355.246094 238.636719 356.082031 C 235.878906 356.921875 233.097656 357.6875 230.300781 358.390625 C 227.507812 359.089844 224.695312 359.722656 221.867188 360.285156 C 219.039062 360.847656 216.199219 361.339844 213.347656 361.761719 C 210.492188 362.183594 207.632812 362.539062 204.765625 362.820312 C 201.894531 363.101562 199.019531 363.316406 196.140625 363.457031 C 193.261719 363.597656 190.378906 363.667969 187.496094 363.667969 C 184.613281 363.667969 181.730469 363.597656 178.851562 363.457031 C 175.972656 363.316406 173.097656 363.101562 170.226562 362.820312 C 167.359375 362.539062 164.5 362.183594 161.644531 361.761719 C 158.792969 361.339844 155.953125 360.847656 153.125 360.285156 C 150.296875 359.722656 147.488281 359.089844 144.691406 358.390625 C 141.894531 357.6875 139.113281 356.921875 136.355469 356.082031 C 133.597656 355.246094 130.859375 354.34375 128.144531 353.371094 C 125.429688 352.398438 122.742188 351.363281 120.078125 350.257812 C 117.414062 349.15625 114.777344 347.988281 112.171875 346.753906 C 109.566406 345.523438 106.992188 344.226562 104.449219 342.867188 C 101.90625 341.507812 99.398438 340.085938 96.925781 338.605469 C 94.453125 337.121094 92.015625 335.582031 89.621094 333.980469 C 87.222656 332.375 84.867188 330.71875 82.550781 329 C 80.234375 327.28125 77.960938 325.507812 75.734375 323.679688 C 73.503906 321.851562 71.320312 319.96875 69.1875 318.03125 C 67.050781 316.09375 64.960938 314.109375 62.921875 312.070312 C 60.882812 310.03125 58.898438 307.941406 56.960938 305.808594 C 55.023438 303.671875 53.140625 301.488281 51.3125 299.257812 C 49.484375 297.03125 47.710938 294.757812 45.992188 292.441406 C 44.273438 290.125 42.617188 287.769531 41.011719 285.371094 C 39.410156 282.976562 37.871094 280.539062 36.386719 278.066406 C 34.90625 275.59375 33.484375 273.085938 32.125 270.542969 C 30.765625 268 29.46875 265.425781 28.238281 262.820312 C 27.003906 260.214844 25.835938 257.578125 24.734375 254.914062 C 23.628906 252.25 22.59375 249.5625 21.621094 246.847656 C 20.648438 244.132812 19.746094 241.394531 18.910156 238.636719 C 18.070312 235.878906 17.304688 233.097656 16.601562 230.300781 C 15.902344 227.507812 15.269531 224.695312 14.707031 221.867188 C 14.144531 219.039062 13.652344 216.199219 13.230469 213.347656 C 12.808594 210.492188 12.453125 207.632812 12.171875 204.765625 C 11.890625 201.894531 11.675781 199.019531 11.535156 196.140625 C 11.394531 193.261719 11.324219 190.378906 11.324219 187.496094 C 11.324219 184.613281 11.394531 181.730469 11.535156 178.851562 C 11.675781 175.972656 11.890625 173.097656 12.171875 170.226562 C 12.453125 167.359375 12.808594 164.5 13.230469 161.644531 C 13.652344 158.792969 14.144531 155.953125 14.707031 153.125 C 15.269531 150.296875 15.902344 147.488281 16.601562 144.691406 C 17.304688 141.894531 18.070312 139.113281 18.910156 136.355469 C 19.746094 133.597656 20.648438 130.859375 21.621094 128.144531 C 22.59375 125.429688 23.628906 122.742188 24.734375 120.078125 C 25.835938 117.414062 27.003906 114.777344 28.238281 112.171875 C 29.46875 109.566406 30.765625 106.992188 32.125 104.449219 C 33.484375 101.90625 34.90625 99.398438 36.386719 96.925781 C 37.871094 94.453125 39.410156 92.015625 41.011719 89.621094 C 42.617188 87.222656 44.273438 84.867188 45.992188 82.550781 C 47.710938 80.234375 49.484375 77.960938 51.3125 75.734375 C 53.140625 73.503906 55.023438 71.320312 56.960938 69.1875 C 58.898438 67.050781 60.882812 64.960938 62.921875 62.921875 C 64.960938 60.882812 67.050781 58.898438 69.1875 56.960938 C 71.320312 55.023438 73.503906 53.140625 75.734375 51.3125 C 77.960938 49.484375 80.234375 47.710938 82.550781 45.992188 C 84.867188 44.273438 87.222656 42.617188 89.621094 41.011719 C 92.015625 39.410156 94.453125 37.871094 96.925781 36.386719 C 99.398438 34.90625 101.90625 33.484375 104.449219 32.125 C 106.992188 30.765625 109.566406 29.46875 112.171875 28.238281 C 114.777344 27.003906 117.414062 25.835938 120.078125 24.734375 C 122.742188 23.628906 125.429688 22.59375 128.144531 21.621094 C 130.859375 20.648438 133.597656 19.746094 136.355469 18.910156 C 139.113281 18.070312 141.894531 17.304688 144.691406 16.601562 C 147.488281 15.902344 150.296875 15.269531 153.125 14.707031 C 155.953125 14.144531 158.792969 13.652344 161.644531 13.230469 C 164.5 12.808594 167.359375 12.453125 170.226562 12.171875 C 173.097656 11.890625 175.972656 11.675781 178.851562 11.535156 C 181.730469 11.394531 184.613281 11.324219 187.496094 11.324219 C 190.378906 11.324219 193.261719 11.394531 196.140625 11.535156 C 199.019531 11.675781 201.894531 11.890625 204.765625 12.171875 C 207.632812 12.453125 210.492188 12.808594 213.347656 13.230469 C 216.199219 13.652344 219.039062 14.144531 221.867188 14.707031 C 224.695312 15.269531 227.507812 15.902344 230.300781 16.601562 C 233.097656 17.304688 235.878906 18.070312 238.636719 18.910156 C 241.394531 19.746094 244.132812 20.648438 246.847656 21.621094 C 249.5625 22.59375 252.25 23.628906 254.914062 24.734375 C 257.578125 25.835938 260.214844 27.003906 262.820312 28.238281 C 265.425781 29.46875 268 30.765625 270.542969 32.125 C 273.085938 33.484375 275.59375 34.90625 278.066406 36.386719 C 280.539062 37.871094 282.976562 39.410156 285.371094 41.011719 C 287.769531 42.617188 290.125 44.273438 292.441406 45.992188 C 294.757812 47.710938 297.03125 49.484375 299.257812 51.3125 C 301.488281 53.140625 303.671875 55.023438 305.808594 56.960938 C 307.941406 58.898438 310.03125 60.882812 312.070312 62.921875 C 314.109375 64.960938 316.09375 67.050781 318.03125 69.1875 C 319.96875 71.320312 321.851562 73.503906 323.679688 75.734375 C 325.507812 77.960938 327.28125 80.234375 329 82.550781 C 330.71875 84.867188 332.375 87.222656 333.980469 89.621094 C 335.582031 92.015625 337.121094 94.453125 338.605469 96.925781 C 340.085938 99.398438 341.507812 101.90625 342.867188 104.449219 C 344.226562 106.992188 345.523438 109.566406 346.753906 112.171875 C 347.988281 114.777344 349.15625 117.414062 350.257812 120.078125 C 351.363281 122.742188 352.398438 125.429688 353.371094 128.144531 C 354.34375 130.859375 355.246094 133.597656 356.082031 136.355469 C 356.921875 139.113281 357.6875 141.894531 358.390625 144.691406 C 359.089844 147.488281 359.722656 150.296875 360.285156 153.125 C 360.847656 155.953125 361.339844 158.792969 361.761719 161.644531 C 362.183594 164.5 362.539062 167.359375 362.820312 170.226562 C 363.101562 173.097656 363.316406 175.972656 363.457031 178.851562 C 363.597656 181.730469 363.667969 184.613281 363.667969 187.496094 Z M 363.667969 187.496094 " fill-opacity="1" fill-rule="nonzero"/><g clip-path="url(#5e3b627fda)"><path fill="#373741" d="M 187.496094 364.023438 C 140.351562 364.023438 96.027344 345.628906 62.695312 312.296875 C 29.363281 278.964844 10.972656 234.640625 10.972656 187.496094 C 10.972656 140.351562 29.363281 96.027344 62.695312 62.695312 C 96.027344 29.363281 140.351562 10.972656 187.496094 10.972656 C 234.640625 10.972656 278.964844 29.363281 312.296875 62.695312 C 345.628906 96.027344 364.023438 140.351562 364.023438 187.496094 C 364.023438 234.640625 345.628906 278.964844 312.296875 312.296875 C 278.964844 345.628906 234.640625 364.023438 187.496094 364.023438 Z M 187.496094 21.542969 C 143.171875 21.542969 101.523438 38.804688 70.164062 70.164062 C 38.804688 101.523438 21.542969 143.171875 21.542969 187.496094 C 21.542969 231.820312 38.804688 273.46875 70.164062 304.828125 C 101.523438 336.1875 143.171875 353.449219 187.496094 353.449219 C 231.820312 353.449219 273.46875 336.1875 304.828125 304.828125 C 336.1875 273.46875 353.453125 231.820312 353.453125 187.496094 C 353.453125 143.171875 336.1875 101.523438 304.828125 70.164062 C 273.46875 38.804688 231.820312 21.542969 187.496094 21.542969 Z M 187.496094 21.542969 " fill-opacity="1" fill-rule="nonzero"/></g><g clip-path="url(#696f985861)"><g clip-path="url(#a26ab5fe3a)"><path fill="#373741" d="M 150.402344 150.402344 L 224.597656 150.402344 L 224.597656 224.597656 L 150.402344 224.597656 Z M 150.402344 150.402344 " fill-opacity="1" fill-rule="nonzero"/></g></g></svg>