<svg xmlns="http://www.w3.org/2000/svg" xmlns:xlink="http://www.w3.org/1999/xlink" width="1308" zoomAndPan="magnify" viewBox="0 0 980.88 397.499983" height="530" preserveAspectRatio="xMidYMid meet" version="1.0"><defs><g/><clipPath id="b0a5f91e5c"><path d="M 20.40625 23 L 354.484375 23 L 354.484375 357 L 20.40625 357 Z M 20.40625 23 " clip-rule="nonzero"/></clipPath><clipPath id="34d5e90571"><path d="M 20.40625 22.949219 L 354.484375 22.949219 L 354.484375 357.03125 L 20.40625 357.03125 Z M 20.40625 22.949219 " clip-rule="nonzero"/></clipPath><clipPath id="458123ae91"><path d="M 708.875 245.425781 L 779.136719 245.425781 L 779.136719 315.691406 L 708.875 315.691406 Z M 708.875 245.425781 " clip-rule="nonzero"/></clipPath><clipPath id="c97f34abc0"><path d="M 744.003906 245.425781 C 724.601562 245.425781 708.875 261.15625 708.875 280.558594 C 708.875 299.960938 724.601562 315.691406 744.003906 315.691406 C 763.410156 315.691406 779.136719 299.960938 779.136719 280.558594 C 779.136719 261.15625 763.410156 245.425781 744.003906 245.425781 Z M 744.003906 245.425781 " clip-rule="nonzero"/></clipPath><clipPath id="3fc58e4290"><path d="M 152.449219 154.992188 L 222.714844 154.992188 L 222.714844 225.257812 L 152.449219 225.257812 Z M 152.449219 154.992188 " clip-rule="nonzero"/></clipPath><clipPath id="41c08641d4"><path d="M 187.582031 154.992188 C 168.179688 154.992188 152.449219 170.722656 152.449219 190.125 C 152.449219 209.527344 168.179688 225.257812 187.582031 225.257812 C 206.984375 225.257812 222.714844 209.527344 222.714844 190.125 C 222.714844 170.722656 206.984375 154.992188 187.582031 154.992188 Z M 187.582031 154.992188 " clip-rule="nonzero"/></clipPath></defs><g clip-path="url(#b0a5f91e5c)"><path fill="#fcf6e5" d="M 354.421875 190.125 C 354.421875 192.855469 354.355469 195.585938 354.21875 198.3125 C 354.085938 201.039062 353.886719 203.761719 353.617188 206.476562 C 353.351562 209.195312 353.015625 211.90625 352.617188 214.605469 C 352.214844 217.304688 351.75 219.996094 351.214844 222.675781 C 350.683594 225.351562 350.085938 228.015625 349.421875 230.664062 C 348.757812 233.3125 348.03125 235.941406 347.238281 238.554688 C 346.445312 241.167969 345.589844 243.761719 344.667969 246.332031 C 343.75 248.902344 342.765625 251.449219 341.722656 253.972656 C 340.675781 256.496094 339.570312 258.988281 338.402344 261.457031 C 337.234375 263.925781 336.007812 266.363281 334.722656 268.773438 C 333.433594 271.179688 332.089844 273.554688 330.683594 275.898438 C 329.28125 278.238281 327.820312 280.546875 326.304688 282.816406 C 324.785156 285.085938 323.214844 287.320312 321.589844 289.511719 C 319.960938 291.703125 318.28125 293.855469 316.550781 295.96875 C 314.816406 298.078125 313.035156 300.144531 311.203125 302.167969 C 309.367188 304.191406 307.484375 306.167969 305.554688 308.097656 C 303.625 310.03125 301.648438 311.910156 299.625 313.746094 C 297.601562 315.578125 295.535156 317.363281 293.421875 319.09375 C 291.3125 320.828125 289.160156 322.507812 286.96875 324.132812 C 284.773438 325.757812 282.542969 327.332031 280.273438 328.847656 C 278.003906 330.363281 275.695312 331.824219 273.355469 333.230469 C 271.011719 334.632812 268.636719 335.976562 266.230469 337.265625 C 263.820312 338.550781 261.382812 339.78125 258.914062 340.945312 C 256.445312 342.113281 253.949219 343.222656 251.429688 344.265625 C 248.90625 345.308594 246.359375 346.292969 243.789062 347.210938 C 241.21875 348.132812 238.625 348.988281 236.011719 349.78125 C 233.398438 350.574219 230.769531 351.300781 228.121094 351.964844 C 225.472656 352.628906 222.808594 353.226562 220.128906 353.761719 C 217.453125 354.292969 214.761719 354.757812 212.0625 355.160156 C 209.359375 355.558594 206.652344 355.894531 203.933594 356.164062 C 201.214844 356.429688 198.496094 356.628906 195.765625 356.765625 C 193.039062 356.898438 190.3125 356.964844 187.582031 356.964844 C 184.851562 356.964844 182.121094 356.898438 179.394531 356.765625 C 176.667969 356.628906 173.945312 356.429688 171.226562 356.164062 C 168.511719 355.894531 165.800781 355.558594 163.101562 355.160156 C 160.398438 354.757812 157.710938 354.292969 155.03125 353.761719 C 152.355469 353.226562 149.691406 352.628906 147.042969 351.964844 C 144.394531 351.300781 141.761719 350.574219 139.148438 349.78125 C 136.535156 348.988281 133.945312 348.132812 131.375 347.210938 C 128.804688 346.292969 126.257812 345.308594 123.734375 344.265625 C 121.210938 343.222656 118.714844 342.113281 116.246094 340.945312 C 113.777344 339.78125 111.339844 338.550781 108.933594 337.265625 C 106.523438 335.976562 104.148438 334.632812 101.808594 333.230469 C 99.464844 331.824219 97.160156 330.363281 94.890625 328.847656 C 92.617188 327.332031 90.386719 325.757812 88.195312 324.132812 C 86 322.507812 83.847656 320.828125 81.738281 319.09375 C 79.628906 317.363281 77.558594 315.578125 75.539062 313.746094 C 73.515625 311.910156 71.539062 310.03125 69.605469 308.097656 C 67.675781 306.167969 65.792969 304.191406 63.960938 302.167969 C 62.125 300.144531 60.34375 298.078125 58.609375 295.96875 C 56.878906 293.855469 55.199219 291.703125 53.574219 289.511719 C 51.945312 287.320312 50.375 285.085938 48.859375 282.816406 C 47.339844 280.546875 45.878906 278.238281 44.476562 275.898438 C 43.074219 273.554688 41.726562 271.179688 40.441406 268.773438 C 39.152344 266.363281 37.925781 263.925781 36.757812 261.457031 C 35.589844 258.988281 34.484375 256.496094 33.441406 253.972656 C 32.394531 251.449219 31.414062 248.902344 30.492188 246.332031 C 29.574219 243.761719 28.714844 241.167969 27.925781 238.554688 C 27.132812 235.941406 26.402344 233.3125 25.738281 230.664062 C 25.078125 228.015625 24.476562 225.351562 23.945312 222.675781 C 23.414062 219.996094 22.945312 217.304688 22.546875 214.605469 C 22.144531 211.90625 21.8125 209.195312 21.542969 206.476562 C 21.277344 203.761719 21.074219 201.039062 20.941406 198.3125 C 20.808594 195.585938 20.738281 192.855469 20.738281 190.125 C 20.738281 187.394531 20.808594 184.664062 20.941406 181.9375 C 21.074219 179.210938 21.277344 176.488281 21.542969 173.773438 C 21.8125 171.054688 22.144531 168.34375 22.546875 165.644531 C 22.945312 162.941406 23.414062 160.253906 23.945312 157.574219 C 24.476562 154.898438 25.078125 152.234375 25.738281 149.585938 C 26.402344 146.9375 27.132812 144.304688 27.925781 141.695312 C 28.714844 139.082031 29.574219 136.488281 30.492188 133.917969 C 31.414062 131.347656 32.394531 128.800781 33.441406 126.277344 C 34.484375 123.753906 35.589844 121.257812 36.757812 118.792969 C 37.925781 116.324219 39.152344 113.882812 40.441406 111.476562 C 41.726562 109.070312 43.074219 106.695312 44.476562 104.351562 C 45.878906 102.007812 47.339844 99.703125 48.859375 97.433594 C 50.375 95.164062 51.945312 92.929688 53.574219 90.738281 C 55.199219 88.542969 56.878906 86.394531 58.609375 84.28125 C 60.34375 82.171875 62.125 80.105469 63.960938 78.082031 C 65.792969 76.058594 67.675781 74.082031 69.605469 72.152344 C 71.539062 70.21875 73.515625 68.335938 75.539062 66.503906 C 77.558594 64.671875 79.628906 62.886719 81.738281 61.15625 C 83.847656 59.421875 86 57.742188 88.195312 56.117188 C 90.386719 54.492188 92.617188 52.917969 94.890625 51.402344 C 97.160156 49.886719 99.464844 48.425781 101.808594 47.019531 C 104.148438 45.617188 106.523438 44.273438 108.933594 42.984375 C 111.339844 41.699219 113.777344 40.46875 116.246094 39.300781 C 118.714844 38.136719 121.210938 37.027344 123.734375 35.984375 C 126.257812 34.9375 128.804688 33.957031 131.375 33.035156 C 133.945312 32.117188 136.535156 31.261719 139.148438 30.46875 C 141.761719 29.675781 144.394531 28.949219 147.042969 28.285156 C 149.691406 27.621094 152.355469 27.023438 155.03125 26.488281 C 157.710938 25.957031 160.398438 25.492188 163.101562 25.089844 C 165.800781 24.6875 168.511719 24.355469 171.226562 24.085938 C 173.945312 23.820312 176.667969 23.617188 179.394531 23.484375 C 182.121094 23.351562 184.851562 23.285156 187.582031 23.285156 C 190.3125 23.285156 193.039062 23.351562 195.765625 23.484375 C 198.496094 23.617188 201.214844 23.820312 203.933594 24.085938 C 206.652344 24.355469 209.359375 24.6875 212.0625 25.089844 C 214.761719 25.492188 217.453125 25.957031 220.128906 26.488281 C 222.808594 27.023438 225.472656 27.621094 228.121094 28.285156 C 230.769531 28.949219 233.398438 29.675781 236.011719 30.46875 C 238.625 31.261719 241.21875 32.117188 243.789062 33.035156 C 246.359375 33.957031 248.90625 34.9375 251.429688 35.984375 C 253.949219 37.027344 256.445312 38.136719 258.914062 39.300781 C 261.382812 40.46875 263.820312 41.699219 266.230469 42.984375 C 268.636719 44.273438 271.011719 45.617188 273.355469 47.019531 C 275.695312 48.425781 278.003906 49.886719 280.273438 51.402344 C 282.542969 52.917969 284.773438 54.492188 286.96875 56.117188 C 289.160156 57.742188 291.3125 59.421875 293.421875 61.15625 C 295.535156 62.886719 297.601562 64.671875 299.625 66.503906 C 301.648438 68.335938 303.625 70.21875 305.554688 72.152344 C 307.484375 74.082031 309.367188 76.058594 311.203125 78.082031 C 313.035156 80.105469 314.816406 82.171875 316.550781 84.28125 C 318.28125 86.394531 319.960938 88.542969 321.589844 90.738281 C 323.214844 92.929688 324.785156 95.164062 326.304688 97.433594 C 327.820312 99.703125 329.28125 102.007812 330.683594 104.351562 C 332.089844 106.695312 333.433594 109.070312 334.722656 111.476562 C 336.007812 113.882812 337.234375 116.324219 338.402344 118.792969 C 339.570312 121.257812 340.675781 123.753906 341.722656 126.277344 C 342.765625 128.800781 343.75 131.347656 344.667969 133.917969 C 345.589844 136.488281 346.445312 139.082031 347.238281 141.695312 C 348.03125 144.304688 348.757812 146.9375 349.421875 149.585938 C 350.085938 152.234375 350.683594 154.898438 351.214844 157.574219 C 351.75 160.253906 352.214844 162.941406 352.617188 165.644531 C 353.015625 168.34375 353.351562 171.054688 353.617188 173.773438 C 353.886719 176.488281 354.085938 179.210938 354.21875 181.9375 C 354.355469 184.664062 354.421875 187.394531 354.421875 190.125 Z M 354.421875 190.125 " fill-opacity="1" fill-rule="nonzero"/></g><g clip-path="url(#34d5e90571)"><path fill="#373741" d="M 187.582031 357.300781 C 142.933594 357.300781 100.957031 339.882812 69.390625 308.316406 C 37.824219 276.75 20.40625 234.773438 20.40625 190.125 C 20.40625 145.476562 37.824219 103.5 69.390625 71.933594 C 100.957031 40.367188 142.933594 22.949219 187.582031 22.949219 C 232.226562 22.949219 274.203125 40.367188 305.769531 71.933594 C 337.335938 103.5 354.753906 145.476562 354.753906 190.125 C 354.753906 234.773438 337.335938 276.75 305.769531 308.316406 C 274.203125 339.882812 232.226562 357.300781 187.582031 357.300781 Z M 187.582031 32.960938 C 145.605469 32.960938 106.164062 49.3125 76.464844 79.007812 C 46.765625 108.707031 30.417969 148.148438 30.417969 190.125 C 30.417969 232.101562 46.765625 271.542969 76.464844 301.242188 C 106.164062 330.9375 145.605469 347.289062 187.582031 347.289062 C 229.558594 347.289062 269 330.9375 298.695312 301.242188 C 328.394531 271.542969 344.746094 232.101562 344.746094 190.125 C 344.746094 148.148438 328.394531 108.707031 298.695312 79.007812 C 269 49.3125 229.558594 32.960938 187.582031 32.960938 Z M 187.582031 32.960938 " fill-opacity="1" fill-rule="nonzero"/></g><g fill="#373741" fill-opacity="1"><g transform="translate(421.494405, 135.434222)"><g><path d="M 42.546875 -14.5 C 44.984375 -14.5 47.351562 -14.863281 49.65625 -15.59375 C 51.957031 -16.332031 53.648438 -17.046875 54.734375 -17.734375 L 56.34375 -18.84375 L 63.171875 -5.203125 C 62.941406 -5.023438 62.628906 -4.796875 62.234375 -4.515625 C 61.835938 -4.234375 60.910156 -3.707031 59.453125 -2.9375 C 58.003906 -2.175781 56.457031 -1.507812 54.8125 -0.9375 C 53.164062 -0.363281 51.003906 0.144531 48.328125 0.59375 C 45.660156 1.050781 42.90625 1.28125 40.0625 1.28125 C 33.53125 1.28125 27.335938 -0.320312 21.484375 -3.53125 C 15.628906 -6.75 10.910156 -11.171875 7.328125 -16.796875 C 3.742188 -22.421875 1.953125 -28.5 1.953125 -35.03125 C 1.953125 -39.976562 3.003906 -44.722656 5.109375 -49.265625 C 7.210938 -53.816406 10.007812 -57.710938 13.5 -60.953125 C 17 -64.191406 21.078125 -66.773438 25.734375 -68.703125 C 30.398438 -70.640625 35.175781 -71.609375 40.0625 -71.609375 C 44.613281 -71.609375 48.804688 -71.066406 52.640625 -69.984375 C 56.472656 -68.910156 59.1875 -67.832031 60.78125 -66.75 L 63.171875 -65.125 L 56.34375 -51.484375 C 55.945312 -51.828125 55.347656 -52.238281 54.546875 -52.71875 C 53.753906 -53.207031 52.164062 -53.847656 49.78125 -54.640625 C 47.394531 -55.441406 44.984375 -55.84375 42.546875 -55.84375 C 38.679688 -55.84375 35.210938 -55.21875 32.140625 -53.96875 C 29.066406 -52.71875 26.632812 -51.066406 24.84375 -49.015625 C 23.0625 -46.972656 21.703125 -44.769531 20.765625 -42.40625 C 19.828125 -40.050781 19.359375 -37.648438 19.359375 -35.203125 C 19.359375 -29.859375 21.359375 -25.070312 25.359375 -20.84375 C 29.367188 -16.613281 35.097656 -14.5 42.546875 -14.5 Z M 42.546875 -14.5 "/></g></g></g><g fill="#373741" fill-opacity="1"><g transform="translate(490.789031, 135.434222)"><g><path d="M 1.953125 -35.203125 C 1.953125 -45.378906 5.421875 -53.988281 12.359375 -61.03125 C 19.296875 -68.082031 27.648438 -71.609375 37.421875 -71.609375 C 47.253906 -71.609375 55.609375 -68.097656 62.484375 -61.078125 C 69.359375 -54.054688 72.796875 -45.429688 72.796875 -35.203125 C 72.796875 -24.921875 69.414062 -16.269531 62.65625 -9.25 C 55.894531 -2.226562 47.484375 1.28125 37.421875 1.28125 C 27.140625 1.28125 18.65625 -2.195312 11.96875 -9.15625 C 5.289062 -16.125 1.953125 -24.804688 1.953125 -35.203125 Z M 19.265625 -35.203125 C 19.265625 -31.515625 19.832031 -28.148438 20.96875 -25.109375 C 22.101562 -22.066406 24.09375 -19.492188 26.9375 -17.390625 C 29.78125 -15.285156 33.273438 -14.234375 37.421875 -14.234375 C 43.390625 -14.234375 47.894531 -16.28125 50.9375 -20.375 C 53.976562 -24.46875 55.5 -29.410156 55.5 -35.203125 C 55.5 -40.941406 53.945312 -45.867188 50.84375 -49.984375 C 47.75 -54.109375 43.273438 -56.171875 37.421875 -56.171875 C 31.628906 -56.171875 27.15625 -54.109375 24 -49.984375 C 20.84375 -45.867188 19.265625 -40.941406 19.265625 -35.203125 Z M 19.265625 -35.203125 "/></g></g></g><g fill="#373741" fill-opacity="1"><g transform="translate(570.652283, 135.434222)"><g><path d="M 5.109375 -70.328125 L 30.265625 -70.328125 C 37.023438 -70.328125 42.535156 -68.519531 46.796875 -64.90625 C 51.066406 -61.300781 53.203125 -56.144531 53.203125 -49.4375 C 53.203125 -44.269531 51.90625 -39.9375 49.3125 -36.4375 C 46.726562 -32.945312 43.21875 -30.488281 38.78125 -29.0625 L 63 0 L 42.625 0 L 21.140625 -27.796875 L 21.140625 0 L 5.109375 0 Z M 21.140625 -39.125 L 23.015625 -39.125 C 24.492188 -39.125 25.742188 -39.148438 26.765625 -39.203125 C 27.785156 -39.265625 28.945312 -39.46875 30.25 -39.8125 C 31.5625 -40.15625 32.613281 -40.640625 33.40625 -41.265625 C 34.207031 -41.890625 34.890625 -42.796875 35.453125 -43.984375 C 36.023438 -45.179688 36.3125 -46.628906 36.3125 -48.328125 C 36.3125 -50.035156 36.023438 -51.484375 35.453125 -52.671875 C 34.890625 -53.867188 34.207031 -54.78125 33.40625 -55.40625 C 32.613281 -56.03125 31.5625 -56.515625 30.25 -56.859375 C 28.945312 -57.203125 27.785156 -57.398438 26.765625 -57.453125 C 25.742188 -57.515625 24.492188 -57.546875 23.015625 -57.546875 L 21.140625 -57.546875 Z M 21.140625 -39.125 "/></g></g></g><g fill="#373741" fill-opacity="1"><g transform="translate(636.793348, 135.434222)"><g><path d="M 45.359375 -70.328125 L 45.359375 -56.265625 L 21.140625 -56.265625 L 21.140625 -42.28125 L 44.328125 -42.28125 L 44.328125 -28.21875 L 21.140625 -28.21875 L 21.140625 -14.0625 L 45.359375 -14.0625 L 45.359375 0 L 5.109375 0 L 5.109375 -70.328125 Z M 45.359375 -70.328125 "/></g></g></g><g fill="#373741" fill-opacity="1"><g transform="translate(421.494405, 224.715316)"><g><path d="M 5.109375 -70.328125 L 25.484375 -70.328125 C 35.265625 -70.328125 43.617188 -66.988281 50.546875 -60.3125 C 57.484375 -53.632812 60.953125 -45.265625 60.953125 -35.203125 C 60.953125 -25.085938 57.5 -16.691406 50.59375 -10.015625 C 43.6875 -3.335938 35.316406 0 25.484375 0 L 5.109375 0 Z M 21.140625 -14.328125 L 23.609375 -14.328125 C 29.460938 -14.328125 34.25 -16.300781 37.96875 -20.25 C 41.695312 -24.195312 43.585938 -29.15625 43.640625 -35.125 C 43.640625 -41.09375 41.78125 -46.066406 38.0625 -50.046875 C 34.34375 -54.023438 29.523438 -56.015625 23.609375 -56.015625 L 21.140625 -56.015625 Z M 21.140625 -14.328125 "/></g></g></g><g fill="#373741" fill-opacity="1"><g transform="translate(489.510557, 224.715316)"><g><path d="M 21.140625 -70.328125 L 21.140625 0 L 5.109375 0 L 5.109375 -70.328125 Z M 21.140625 -70.328125 "/></g></g></g><g fill="#373741" fill-opacity="1"><g transform="translate(520.877452, 224.715316)"><g><path d="M 68.71875 -39.390625 L 68.71875 -24.125 C 66.894531 -15.769531 62.910156 -9.445312 56.765625 -5.15625 C 50.628906 -0.863281 43.785156 1.28125 36.234375 1.28125 C 26.742188 1.28125 18.65625 -2.269531 11.96875 -9.375 C 5.289062 -16.476562 1.953125 -25.0625 1.953125 -35.125 C 1.953125 -45.351562 5.21875 -53.988281 11.75 -61.03125 C 18.289062 -68.082031 26.453125 -71.609375 36.234375 -71.609375 C 47.648438 -71.609375 56.6875 -67.601562 63.34375 -59.59375 L 52.859375 -48.078125 C 49.109375 -54.109375 43.878906 -57.125 37.171875 -57.125 C 32.222656 -57.125 28 -54.976562 24.5 -50.6875 C 21.007812 -46.394531 19.265625 -41.207031 19.265625 -35.125 C 19.265625 -29.15625 21.007812 -24.050781 24.5 -19.8125 C 28 -15.582031 32.222656 -13.46875 37.171875 -13.46875 C 41.265625 -13.46875 44.828125 -14.703125 47.859375 -17.171875 C 50.898438 -19.648438 52.421875 -22.9375 52.421875 -27.03125 L 36.234375 -27.03125 L 36.234375 -39.390625 Z M 68.71875 -39.390625 "/></g></g></g><g fill="#373741" fill-opacity="1"><g transform="translate(596.649646, 224.715316)"><g><path d="M 21.140625 -70.328125 L 21.140625 0 L 5.109375 0 L 5.109375 -70.328125 Z M 21.140625 -70.328125 "/></g></g></g><g fill="#373741" fill-opacity="1"><g transform="translate(628.016546, 224.715316)"><g><path d="M 0.6875 -56.265625 L 0.6875 -70.328125 L 50.125 -70.328125 L 50.125 -56.265625 L 33.421875 -56.265625 L 33.421875 0 L 17.390625 0 L 17.390625 -56.265625 Z M 0.6875 -56.265625 "/></g></g></g><g fill="#373741" fill-opacity="1"><g transform="translate(683.929929, 224.715316)"><g><path d="M 40.828125 -70.328125 L 69.21875 0 L 52 0 L 46.796875 -14.0625 L 20.03125 -14.0625 L 14.828125 0 L -2.390625 0 L 26 -70.328125 Z M 41.34375 -28.125 L 33.5 -48.59375 L 33.328125 -48.59375 L 25.484375 -28.125 Z M 41.34375 -28.125 "/></g></g></g><g fill="#373741" fill-opacity="1"><g transform="translate(755.866716, 224.715316)"><g><path d="M 21.140625 -70.328125 L 21.140625 -14.0625 L 45.359375 -14.0625 L 45.359375 0 L 5.109375 0 L 5.109375 -70.328125 Z M 21.140625 -70.328125 "/></g></g></g><g fill="#373741" fill-opacity="1"><g transform="translate(421.494405, 313.99641)"><g><path d="M 31.03125 -71.609375 C 34.84375 -71.609375 38.566406 -71.050781 42.203125 -69.9375 C 45.835938 -68.832031 48.535156 -67.742188 50.296875 -66.671875 L 52.859375 -64.953125 L 46.375 -52.171875 C 45.863281 -52.515625 45.148438 -52.953125 44.234375 -53.484375 C 43.328125 -54.023438 41.625 -54.75 39.125 -55.65625 C 36.625 -56.570312 34.296875 -57.03125 32.140625 -57.03125 C 29.460938 -57.03125 27.398438 -56.460938 25.953125 -55.328125 C 24.503906 -54.191406 23.78125 -52.65625 23.78125 -50.71875 C 23.78125 -49.757812 24.117188 -48.863281 24.796875 -48.03125 C 25.484375 -47.207031 26.648438 -46.328125 28.296875 -45.390625 C 29.953125 -44.453125 31.40625 -43.695312 32.65625 -43.125 C 33.90625 -42.5625 35.835938 -41.710938 38.453125 -40.578125 C 42.992188 -38.648438 46.867188 -36.019531 50.078125 -32.6875 C 53.296875 -29.363281 54.90625 -25.597656 54.90625 -21.390625 C 54.90625 -17.359375 54.175781 -13.835938 52.71875 -10.828125 C 51.269531 -7.816406 49.28125 -5.457031 46.75 -3.75 C 44.226562 -2.039062 41.429688 -0.773438 38.359375 0.046875 C 35.296875 0.867188 31.972656 1.28125 28.390625 1.28125 C 25.316406 1.28125 22.300781 0.96875 19.34375 0.34375 C 16.394531 -0.28125 13.925781 -1.0625 11.9375 -2 C 9.945312 -2.9375 8.15625 -3.859375 6.5625 -4.765625 C 4.96875 -5.679688 3.800781 -6.453125 3.0625 -7.078125 L 1.953125 -8.015625 L 9.96875 -21.484375 C 10.65625 -20.910156 11.59375 -20.179688 12.78125 -19.296875 C 13.976562 -18.421875 16.097656 -17.242188 19.140625 -15.765625 C 22.179688 -14.296875 24.863281 -13.5625 27.1875 -13.5625 C 33.957031 -13.5625 37.34375 -15.859375 37.34375 -20.453125 C 37.34375 -21.421875 37.097656 -22.316406 36.609375 -23.140625 C 36.128906 -23.960938 35.273438 -24.785156 34.046875 -25.609375 C 32.828125 -26.441406 31.75 -27.097656 30.8125 -27.578125 C 29.875 -28.054688 28.335938 -28.789062 26.203125 -29.78125 C 24.078125 -30.78125 22.503906 -31.535156 21.484375 -32.046875 C 17.222656 -34.148438 13.925781 -36.78125 11.59375 -39.9375 C 9.257812 -43.09375 8.09375 -46.488281 8.09375 -50.125 C 8.09375 -56.4375 10.421875 -61.59375 15.078125 -65.59375 C 19.742188 -69.601562 25.0625 -71.609375 31.03125 -71.609375 Z M 31.03125 -71.609375 "/></g></g></g><g fill="#373741" fill-opacity="1"><g transform="translate(483.885359, 313.99641)"><g><path d="M 0.6875 -56.265625 L 0.6875 -70.328125 L 50.125 -70.328125 L 50.125 -56.265625 L 33.421875 -56.265625 L 33.421875 0 L 17.390625 0 L 17.390625 -56.265625 Z M 0.6875 -56.265625 "/></g></g></g><g fill="#373741" fill-opacity="1"><g transform="translate(539.798736, 313.99641)"><g><path d="M 59.15625 -70.328125 L 59.15625 -24.984375 C 59.15625 -16.335938 56.828125 -9.796875 52.171875 -5.359375 C 47.515625 -0.929688 40.695312 1.28125 31.71875 1.28125 C 22.738281 1.28125 15.914062 -0.929688 11.25 -5.359375 C 6.59375 -9.796875 4.265625 -16.335938 4.265625 -24.984375 L 4.265625 -70.328125 L 20.296875 -70.328125 L 20.296875 -29.671875 C 20.296875 -23.984375 21.1875 -20.03125 22.96875 -17.8125 C 24.757812 -15.601562 27.671875 -14.5 31.703125 -14.5 C 35.742188 -14.5 38.660156 -15.601562 40.453125 -17.8125 C 42.242188 -20.03125 43.140625 -23.984375 43.140625 -29.671875 L 43.140625 -70.328125 Z M 59.15625 -70.328125 "/></g></g></g><g fill="#373741" fill-opacity="1"><g transform="translate(608.326281, 313.99641)"><g><path d="M 5.109375 -70.328125 L 25.484375 -70.328125 C 35.265625 -70.328125 43.617188 -66.988281 50.546875 -60.3125 C 57.484375 -53.632812 60.953125 -45.265625 60.953125 -35.203125 C 60.953125 -25.085938 57.5 -16.691406 50.59375 -10.015625 C 43.6875 -3.335938 35.316406 0 25.484375 0 L 5.109375 0 Z M 21.140625 -14.328125 L 23.609375 -14.328125 C 29.460938 -14.328125 34.25 -16.300781 37.96875 -20.25 C 41.695312 -24.195312 43.585938 -29.15625 43.640625 -35.125 C 43.640625 -41.09375 41.78125 -46.066406 38.0625 -50.046875 C 34.34375 -54.023438 29.523438 -56.015625 23.609375 -56.015625 L 21.140625 -56.015625 Z M 21.140625 -14.328125 "/></g></g></g><g fill="#373741" fill-opacity="1"><g transform="translate(676.342439, 313.99641)"><g><path d="M 21.140625 -70.328125 L 21.140625 0 L 5.109375 0 L 5.109375 -70.328125 Z M 21.140625 -70.328125 "/></g></g></g><g clip-path="url(#458123ae91)"><g clip-path="url(#c97f34abc0)"><path fill="#373741" d="M 708.875 245.425781 L 779.136719 245.425781 L 779.136719 315.691406 L 708.875 315.691406 Z M 708.875 245.425781 " fill-opacity="1" fill-rule="nonzero"/></g></g><g clip-path="url(#3fc58e4290)"><g clip-path="url(#41c08641d4)"><path fill="#373741" d="M 152.449219 154.992188 L 222.714844 154.992188 L 222.714844 225.257812 L 152.449219 225.257812 Z M 152.449219 154.992188 " fill-opacity="1" fill-rule="nonzero"/></g></g></svg>