<svg xmlns="http://www.w3.org/2000/svg" xmlns:xlink="http://www.w3.org/1999/xlink" width="500" zoomAndPan="magnify" viewBox="0 0 375 374.999991" height="500" preserveAspectRatio="xMidYMid meet" version="1.0"><defs><clipPath id="23a36814af"><path d="M 0 0 L 374.699219 0 L 374.699219 375 L 0 375 Z M 0 0 " clip-rule="nonzero"/></clipPath><clipPath id="d74f480bfe"><path d="M 147.796875 148.097656 L 226.601562 148.097656 L 226.601562 226.902344 L 147.796875 226.902344 Z M 147.796875 148.097656 " clip-rule="nonzero"/></clipPath><clipPath id="0998aa4b91"><path d="M 187.199219 148.097656 C 165.4375 148.097656 147.796875 165.738281 147.796875 187.5 C 147.796875 209.261719 165.4375 226.902344 187.199219 226.902344 C 208.960938 226.902344 226.601562 209.261719 226.601562 187.5 C 226.601562 165.738281 208.960938 148.097656 187.199219 148.097656 Z M 187.199219 148.097656 " clip-rule="nonzero"/></clipPath></defs><g clip-path="url(#23a36814af)"><path fill="#fcf6e5" d="M 374.324219 187.5 C 374.324219 190.5625 374.25 193.621094 374.097656 196.683594 C 373.949219 199.742188 373.722656 202.792969 373.421875 205.839844 C 373.125 208.890625 372.75 211.925781 372.300781 214.957031 C 371.851562 217.984375 371.328125 221.003906 370.730469 224.007812 C 370.132812 227.011719 369.460938 229.996094 368.714844 232.96875 C 367.972656 235.9375 367.15625 238.890625 366.265625 241.820312 C 365.378906 244.75 364.417969 247.65625 363.386719 250.539062 C 362.355469 253.425781 361.253906 256.28125 360.082031 259.109375 C 358.910156 261.9375 357.667969 264.738281 356.359375 267.507812 C 355.050781 270.273438 353.671875 273.007812 352.230469 275.710938 C 350.785156 278.410156 349.277344 281.074219 347.703125 283.703125 C 346.128906 286.328125 344.488281 288.914062 342.789062 291.460938 C 341.085938 294.007812 339.324219 296.511719 337.5 298.96875 C 335.675781 301.429688 333.792969 303.84375 331.847656 306.210938 C 329.90625 308.578125 327.90625 310.898438 325.851562 313.164062 C 323.792969 315.433594 321.683594 317.652344 319.515625 319.816406 C 317.351562 321.984375 315.132812 324.09375 312.863281 326.152344 C 310.59375 328.207031 308.277344 330.207031 305.910156 332.148438 C 303.542969 334.09375 301.128906 335.976562 298.667969 337.800781 C 296.210938 339.625 293.707031 341.386719 291.160156 343.089844 C 288.613281 344.789062 286.027344 346.429688 283.402344 348.003906 C 280.773438 349.578125 278.109375 351.085938 275.410156 352.53125 C 272.707031 353.972656 269.972656 355.351562 267.207031 356.660156 C 264.4375 357.96875 261.636719 359.210938 258.808594 360.382812 C 255.980469 361.554688 253.121094 362.65625 250.238281 363.6875 C 247.355469 364.71875 244.449219 365.679688 241.519531 366.566406 C 238.585938 367.457031 235.636719 368.273438 232.667969 369.019531 C 229.695312 369.761719 226.707031 370.433594 223.707031 371.03125 C 220.703125 371.628906 217.683594 372.152344 214.65625 372.601562 C 211.625 373.050781 208.589844 373.425781 205.539062 373.726562 C 202.492188 374.023438 199.4375 374.25 196.378906 374.398438 C 193.320312 374.550781 190.261719 374.625 187.199219 374.625 C 184.136719 374.625 181.074219 374.550781 178.015625 374.398438 C 174.957031 374.25 171.90625 374.023438 168.855469 373.726562 C 165.808594 373.425781 162.769531 373.050781 159.742188 372.601562 C 156.710938 372.152344 153.695312 371.628906 150.691406 371.03125 C 147.6875 370.433594 144.703125 369.761719 141.730469 369.019531 C 138.761719 368.273438 135.808594 367.457031 132.878906 366.566406 C 129.949219 365.679688 127.042969 364.71875 124.15625 363.6875 C 121.273438 362.65625 118.417969 361.554688 115.589844 360.382812 C 112.757812 359.210938 109.960938 357.96875 107.191406 356.660156 C 104.421875 355.351562 101.6875 353.972656 98.988281 352.53125 C 96.289062 351.085938 93.625 349.578125 90.996094 348.003906 C 88.371094 346.429688 85.785156 344.789062 83.238281 343.089844 C 80.691406 341.386719 78.1875 339.625 75.726562 337.800781 C 73.269531 335.976562 70.855469 334.09375 68.488281 332.148438 C 66.121094 330.207031 63.800781 328.207031 61.53125 326.152344 C 59.261719 324.09375 57.046875 321.984375 54.882812 319.816406 C 52.714844 317.652344 50.605469 315.433594 48.546875 313.164062 C 46.492188 310.898438 44.492188 308.578125 42.546875 306.210938 C 40.605469 303.84375 38.722656 301.429688 36.898438 298.96875 C 35.074219 296.511719 33.3125 294.007812 31.609375 291.460938 C 29.90625 288.914062 28.269531 286.328125 26.695312 283.703125 C 25.121094 281.074219 23.613281 278.410156 22.167969 275.710938 C 20.726562 273.007812 19.347656 270.273438 18.039062 267.507812 C 16.730469 264.738281 15.488281 261.9375 14.316406 259.109375 C 13.144531 256.28125 12.042969 253.425781 11.011719 250.539062 C 9.980469 247.65625 9.019531 244.75 8.128906 241.820312 C 7.242188 238.890625 6.425781 235.9375 5.679688 232.96875 C 4.9375 229.996094 4.265625 227.011719 3.667969 224.007812 C 3.070312 221.003906 2.546875 217.984375 2.097656 214.957031 C 1.648438 211.925781 1.273438 208.890625 0.972656 205.839844 C 0.675781 202.792969 0.449219 199.742188 0.296875 196.683594 C 0.148438 193.621094 0.0742188 190.5625 0.0742188 187.5 C 0.0742188 184.4375 0.148438 181.375 0.296875 178.316406 C 0.449219 175.257812 0.675781 172.207031 0.972656 169.160156 C 1.273438 166.109375 1.648438 163.070312 2.097656 160.042969 C 2.546875 157.011719 3.070312 153.996094 3.667969 150.992188 C 4.265625 147.988281 4.9375 145.003906 5.679688 142.03125 C 6.425781 139.0625 7.242188 136.109375 8.128906 133.179688 C 9.019531 130.25 9.980469 127.34375 11.011719 124.460938 C 12.042969 121.574219 13.144531 118.71875 14.316406 115.890625 C 15.488281 113.0625 16.730469 110.261719 18.039062 107.492188 C 19.347656 104.726562 20.726562 101.992188 22.167969 99.289062 C 23.613281 96.589844 25.121094 93.925781 26.695312 91.296875 C 28.269531 88.671875 29.90625 86.085938 31.609375 83.539062 C 33.3125 80.992188 35.074219 78.488281 36.898438 76.03125 C 38.722656 73.570312 40.605469 71.15625 42.546875 68.789062 C 44.492188 66.421875 46.492188 64.101562 48.546875 61.835938 C 50.605469 59.566406 52.714844 57.347656 54.882812 55.183594 C 57.046875 53.015625 59.261719 50.90625 61.53125 48.847656 C 63.800781 46.792969 66.121094 44.792969 68.488281 42.851562 C 70.855469 40.90625 73.269531 39.023438 75.726562 37.199219 C 78.1875 35.375 80.691406 33.613281 83.238281 31.910156 C 85.785156 30.210938 88.371094 28.570312 90.996094 26.996094 C 93.625 25.421875 96.289062 23.914062 98.988281 22.46875 C 101.6875 21.027344 104.421875 19.648438 107.191406 18.339844 C 109.960938 17.03125 112.757812 15.789062 115.589844 14.617188 C 118.417969 13.445312 121.273438 12.34375 124.15625 11.3125 C 127.042969 10.28125 129.949219 9.320312 132.878906 8.433594 C 135.808594 7.542969 138.761719 6.726562 141.730469 5.980469 C 144.703125 5.238281 147.6875 4.566406 150.691406 3.96875 C 153.695312 3.371094 156.710938 2.847656 159.742188 2.398438 C 162.769531 1.949219 165.808594 1.574219 168.855469 1.273438 C 171.90625 0.976562 174.957031 0.75 178.015625 0.601562 C 181.074219 0.449219 184.136719 0.375 187.199219 0.375 C 190.261719 0.375 193.320312 0.449219 196.378906 0.601562 C 199.4375 0.75 202.492188 0.976562 205.539062 1.273438 C 208.589844 1.574219 211.625 1.949219 214.65625 2.398438 C 217.683594 2.847656 220.703125 3.371094 223.707031 3.96875 C 226.707031 4.566406 229.695312 5.238281 232.667969 5.980469 C 235.636719 6.726562 238.585938 7.542969 241.519531 8.433594 C 244.449219 9.320312 247.355469 10.28125 250.238281 11.3125 C 253.121094 12.34375 255.980469 13.445312 258.808594 14.617188 C 261.636719 15.789062 264.4375 17.03125 267.207031 18.339844 C 269.972656 19.648438 272.707031 21.027344 275.410156 22.46875 C 278.109375 23.914062 280.773438 25.421875 283.402344 26.996094 C 286.027344 28.570312 288.613281 30.210938 291.160156 31.910156 C 293.707031 33.613281 296.210938 35.375 298.667969 37.199219 C 301.128906 39.023438 303.542969 40.90625 305.910156 42.851562 C 308.277344 44.792969 310.59375 46.792969 312.863281 48.847656 C 315.132812 50.90625 317.351562 53.015625 319.515625 55.183594 C 321.683594 57.347656 323.792969 59.566406 325.851562 61.835938 C 327.90625 64.101562 329.90625 66.421875 331.847656 68.789062 C 333.792969 71.15625 335.675781 73.570312 337.5 76.03125 C 339.324219 78.488281 341.085938 80.992188 342.789062 83.539062 C 344.488281 86.085938 346.128906 88.671875 347.703125 91.296875 C 349.277344 93.925781 350.785156 96.589844 352.230469 99.289062 C 353.671875 101.992188 355.050781 104.726562 356.359375 107.492188 C 357.667969 110.261719 358.910156 113.0625 360.082031 115.890625 C 361.253906 118.71875 362.355469 121.574219 363.386719 124.460938 C 364.417969 127.34375 365.378906 130.25 366.265625 133.179688 C 367.15625 136.109375 367.972656 139.0625 368.714844 142.03125 C 369.460938 145.003906 370.132812 147.988281 370.730469 150.992188 C 371.328125 153.996094 371.851562 157.011719 372.300781 160.042969 C 372.75 163.070312 373.125 166.109375 373.421875 169.160156 C 373.722656 172.207031 373.949219 175.257812 374.097656 178.316406 C 374.25 181.375 374.324219 184.4375 374.324219 187.5 Z M 374.324219 187.5 " fill-opacity="1" fill-rule="nonzero"/><path fill="#373741" d="M 187.199219 375 C 137.125 375 90.042969 355.464844 54.640625 320.058594 C 19.234375 284.65625 -0.300781 237.574219 -0.300781 187.5 C -0.300781 137.425781 19.234375 90.34375 54.640625 54.941406 C 90.042969 19.535156 137.125 0 187.199219 0 C 237.273438 0 284.355469 19.535156 319.757812 54.941406 C 355.164062 90.34375 374.699219 137.425781 374.699219 187.5 C 374.699219 237.574219 355.164062 284.65625 319.757812 320.058594 C 284.355469 355.464844 237.273438 375 187.199219 375 Z M 187.199219 11.226562 C 140.117188 11.226562 95.882812 29.566406 62.574219 62.875 C 29.265625 96.183594 10.925781 140.417969 10.925781 187.5 C 10.925781 234.582031 29.265625 278.816406 62.574219 312.125 C 95.882812 345.433594 140.117188 363.773438 187.199219 363.773438 C 234.28125 363.773438 278.515625 345.433594 311.824219 312.125 C 345.132812 278.816406 363.472656 234.582031 363.472656 187.5 C 363.472656 140.417969 345.132812 96.183594 311.824219 62.875 C 278.515625 29.566406 234.28125 11.226562 187.199219 11.226562 Z M 187.199219 11.226562 " fill-opacity="1" fill-rule="nonzero"/></g><g clip-path="url(#d74f480bfe)"><g clip-path="url(#0998aa4b91)"><path fill="#373741" d="M 147.796875 148.097656 L 226.601562 148.097656 L 226.601562 226.902344 L 147.796875 226.902344 Z M 147.796875 148.097656 " fill-opacity="1" fill-rule="nonzero"/></g></g></svg>