<svg xmlns="http://www.w3.org/2000/svg" xmlns:xlink="http://www.w3.org/1999/xlink" width="500" zoomAndPan="magnify" viewBox="0 0 375 374.999991" height="500" preserveAspectRatio="xMidYMid meet" version="1.0"><defs><clipPath id="ca5aeebd7f"><path d="M 58.253906 173 L 164 173 L 164 203 L 58.253906 203 Z M 58.253906 173 " clip-rule="nonzero"/></clipPath><clipPath id="b88d6764b2"><path d="M 102 139.679688 L 194 139.679688 L 194 197 L 102 197 Z M 102 139.679688 " clip-rule="nonzero"/></clipPath><clipPath id="b29193ff2d"><path d="M 102 173 L 228 173 L 228 235.679688 L 102 235.679688 Z M 102 173 " clip-rule="nonzero"/></clipPath><clipPath id="2b6568d776"><path d="M 183 139.679688 L 261 139.679688 L 261 235.679688 L 183 235.679688 Z M 183 139.679688 " clip-rule="nonzero"/></clipPath></defs><g clip-path="url(#ca5aeebd7f)"><path fill="#000000" d="M 163.875 198.679688 C 161.703125 195.566406 160.410156 191.777344 160.410156 187.679688 C 160.410156 180 154.355469 173.71875 146.796875 173.304688 L 72.59375 173.304688 C 64.675781 173.304688 58.257812 179.738281 58.257812 187.679688 C 58.257812 195.617188 64.675781 202.050781 72.59375 202.050781 L 147.367188 202.050781 C 153.058594 201.898438 158.648438 200.597656 163.875 198.679688 Z M 163.875 198.679688 " fill-opacity="1" fill-rule="nonzero"/></g><g clip-path="url(#b88d6764b2)"><path fill="#000000" d="M 165.222656 187.679688 C 165.222656 191.15625 166.460938 194.320312 168.480469 196.8125 C 179.089844 192.039062 187.988281 185.03125 193.320312 180.207031 C 189.695312 157.269531 169.878906 139.679688 146.023438 139.679688 C 126.460938 139.679688 109.59375 151.507812 102.191406 168.425781 L 146.023438 168.425781 C 156.628906 168.425781 165.222656 177.039062 165.222656 187.679688 Z M 165.222656 187.679688 " fill-opacity="1" fill-rule="nonzero"/></g><g clip-path="url(#b29193ff2d)"><path fill="#000000" d="M 223.796875 197.226562 C 229.078125 191.3125 228.507812 182.179688 222.609375 176.9375 C 216.710938 171.644531 207.652344 172.214844 202.375 178.128906 C 202.117188 178.441406 176.242188 206.929688 146.023438 206.929688 L 102.191406 206.929688 C 109.488281 223.640625 126.046875 235.367188 145.296875 235.679688 C 145.558594 235.679688 145.765625 235.679688 146.023438 235.679688 C 189.28125 235.679688 222.453125 198.785156 223.796875 197.226562 Z M 223.796875 197.226562 " fill-opacity="1" fill-rule="nonzero"/></g><path fill="#000000" d="M 302.660156 173.304688 L 263.800781 173.304688 C 265.09375 177.871094 265.765625 182.695312 265.765625 187.679688 C 265.765625 192.660156 265.09375 197.484375 263.800781 202.050781 L 302.660156 202.050781 C 310.578125 202.050781 316.996094 195.617188 316.996094 187.679688 C 316.996094 179.738281 310.578125 173.304688 302.660156 173.304688 Z M 302.660156 173.304688 " fill-opacity="1" fill-rule="nonzero"/><g clip-path="url(#2b6568d776)"><path fill="#000000" d="M 213.085938 139.679688 C 201.804688 139.679688 191.40625 143.621094 183.175781 150.210938 C 190.214844 157.269531 195.335938 166.300781 197.511719 176.417969 C 200.976562 171.59375 206.671875 168.425781 213.085938 168.425781 C 223.695312 168.425781 232.285156 177.039062 232.285156 187.679688 C 232.285156 192.816406 230.265625 197.539062 226.953125 200.960938 C 224.109375 204.078125 210.035156 218.761719 189.335938 229.296875 C 196.320312 233.34375 204.445312 235.625 213.085938 235.625 C 239.476562 235.625 260.953125 214.089844 260.953125 187.625 C 260.953125 161.214844 239.476562 139.679688 213.085938 139.679688 Z M 213.085938 139.679688 " fill-opacity="1" fill-rule="nonzero"/></g></svg>