<svg version="1.0" preserveAspectRatio="xMidYMid meet" viewBox="55.5 136.499996724 264.75 101.24999757000002" zoomAndPan="magnify" xmlns:xlink="http://www.w3.org/1999/xlink" xmlns="http://www.w3.org/2000/svg" style="max-height: 500px" width="264.75" height="101.24999757000002"><defs><clipPath id="23fdf4ab9c"><path clip-rule="nonzero" d="M 58.253906 173 L 164 173 L 164 202 L 58.253906 202 Z M 58.253906 173"/></clipPath><clipPath id="14ba801c27"><path clip-rule="nonzero" d="M 102 139.679688 L 194 139.679688 L 194 197 L 102 197 Z M 102 139.679688"/></clipPath><clipPath id="4b9a40dbbc"><path clip-rule="nonzero" d="M 102 173 L 228 173 L 228 235.679688 L 102 235.679688 Z M 102 173"/></clipPath><clipPath id="5a23850d5a"><path clip-rule="nonzero" d="M 183 139.679688 L 261 139.679688 L 261 235.679688 L 183 235.679688 Z M 183 139.679688"/></clipPath></defs><g clip-path="url(#23fdf4ab9c)"><path fill-rule="nonzero" fill-opacity="1" d="M 163.769531 198.457031 C 161.597656 195.355469 160.304688 191.582031 160.304688 187.496094 C 160.304688 179.847656 154.257812 173.589844 146.710938 173.175781 L 72.578125 173.175781 C 64.667969 173.175781 58.257812 179.585938 58.257812 187.496094 C 58.257812 195.40625 64.667969 201.816406 72.578125 201.816406 L 147.277344 201.816406 C 152.964844 201.660156 158.550781 200.367188 163.769531 198.457031 Z M 163.769531 198.457031" fill="#4b4b4b"/></g><g clip-path="url(#14ba801c27)"><path fill-rule="nonzero" fill-opacity="1" d="M 165.113281 187.496094 C 165.113281 190.960938 166.355469 194.113281 168.371094 196.59375 C 178.96875 191.839844 187.859375 184.859375 193.183594 180.050781 C 189.566406 157.203125 169.765625 139.679688 145.933594 139.679688 C 126.394531 139.679688 109.542969 151.464844 102.148438 168.316406 L 145.933594 168.316406 C 156.53125 168.316406 165.113281 176.898438 165.113281 187.496094 Z M 165.113281 187.496094" fill="#4b4b4b"/></g><g clip-path="url(#4b9a40dbbc)"><path fill-rule="nonzero" fill-opacity="1" d="M 223.632812 197.007812 C 228.90625 191.117188 228.335938 182.015625 222.445312 176.796875 C 216.550781 171.523438 207.503906 172.089844 202.230469 177.984375 C 201.972656 178.292969 176.125 206.675781 145.933594 206.675781 L 102.148438 206.675781 C 109.4375 223.320312 125.980469 235.003906 145.210938 235.316406 C 145.46875 235.316406 145.675781 235.316406 145.933594 235.316406 C 189.152344 235.316406 222.289062 198.558594 223.632812 197.007812 Z M 223.632812 197.007812" fill="#4b4b4b"/></g><path fill-rule="nonzero" fill-opacity="1" d="M 302.417969 173.175781 L 263.59375 173.175781 C 264.886719 177.726562 265.558594 182.535156 265.558594 187.496094 C 265.558594 192.460938 264.886719 197.265625 263.59375 201.816406 L 302.417969 201.816406 C 310.328125 201.816406 316.738281 195.40625 316.738281 187.496094 C 316.738281 179.585938 310.328125 173.175781 302.417969 173.175781 Z M 302.417969 173.175781" fill="#4b4b4b"/><g clip-path="url(#5a23850d5a)"><path fill-rule="nonzero" fill-opacity="1" d="M 212.933594 139.679688 C 201.664062 139.679688 191.273438 143.605469 183.050781 150.171875 C 190.082031 157.203125 195.199219 166.199219 197.371094 176.277344 C 200.835938 171.472656 206.523438 168.316406 212.933594 168.316406 C 223.53125 168.316406 232.113281 176.898438 232.113281 187.496094 C 232.113281 192.613281 230.09375 197.320312 226.785156 200.730469 C 223.945312 203.832031 209.882812 218.460938 189.203125 228.957031 C 196.183594 232.988281 204.300781 235.261719 212.933594 235.261719 C 239.296875 235.261719 260.75 213.808594 260.75 187.445312 C 260.75 161.132812 239.296875 139.679688 212.933594 139.679688 Z M 212.933594 139.679688" fill="#4b4b4b"/></g></svg>