<svg xmlns="http://www.w3.org/2000/svg" xmlns:xlink="http://www.w3.org/1999/xlink" width="500" zoomAndPan="magnify" viewBox="0 0 375 374.999991" height="500" preserveAspectRatio="xMidYMid meet" version="1.0"><defs><g/><clipPath id="38a6f158ab"><path d="M 280.226562 227.507812 L 346.605469 227.507812 L 346.605469 293.890625 L 280.226562 293.890625 Z M 280.226562 227.507812 " clip-rule="nonzero"/></clipPath><clipPath id="ff1276ed38"><path d="M 313.414062 227.507812 C 295.085938 227.507812 280.226562 242.367188 280.226562 260.699219 C 280.226562 279.03125 295.085938 293.890625 313.414062 293.890625 C 331.746094 293.890625 346.605469 279.03125 346.605469 260.699219 C 346.605469 242.367188 331.746094 227.507812 313.414062 227.507812 Z M 313.414062 227.507812 " clip-rule="nonzero"/></clipPath></defs><g fill="#373741" fill-opacity="1"><g transform="translate(8.726782, 123.59488)"><g><path d="M 40.1875 -13.6875 C 42.488281 -13.6875 44.726562 -14.035156 46.90625 -14.734375 C 49.082031 -15.429688 50.679688 -16.101562 51.703125 -16.75 L 53.234375 -17.796875 L 59.671875 -4.90625 C 59.460938 -4.75 59.164062 -4.535156 58.78125 -4.265625 C 58.40625 -3.992188 57.53125 -3.492188 56.15625 -2.765625 C 54.789062 -2.046875 53.332031 -1.414062 51.78125 -0.875 C 50.226562 -0.34375 48.1875 0.132812 45.65625 0.5625 C 43.132812 0.988281 40.53125 1.203125 37.84375 1.203125 C 31.675781 1.203125 25.828125 -0.3125 20.296875 -3.34375 C 14.765625 -6.375 10.304688 -10.546875 6.921875 -15.859375 C 3.546875 -21.179688 1.859375 -26.925781 1.859375 -33.09375 C 1.859375 -37.769531 2.847656 -42.253906 4.828125 -46.546875 C 6.816406 -50.835938 9.460938 -54.515625 12.765625 -57.578125 C 16.066406 -60.640625 19.914062 -63.082031 24.3125 -64.90625 C 28.71875 -66.726562 33.226562 -67.640625 37.84375 -67.640625 C 42.144531 -67.640625 46.101562 -67.128906 49.71875 -66.109375 C 53.34375 -65.097656 55.910156 -64.082031 57.421875 -63.0625 L 59.671875 -61.53125 L 53.234375 -48.640625 C 52.859375 -48.960938 52.289062 -49.351562 51.53125 -49.8125 C 50.78125 -50.269531 49.273438 -50.875 47.015625 -51.625 C 44.765625 -52.375 42.488281 -52.75 40.1875 -52.75 C 36.53125 -52.75 33.253906 -52.15625 30.359375 -50.96875 C 27.460938 -49.789062 25.164062 -48.234375 23.46875 -46.296875 C 21.78125 -44.367188 20.492188 -42.289062 19.609375 -40.0625 C 18.722656 -37.832031 18.28125 -35.566406 18.28125 -33.265625 C 18.28125 -28.210938 20.171875 -23.6875 23.953125 -19.6875 C 27.742188 -15.6875 33.15625 -13.6875 40.1875 -13.6875 Z M 40.1875 -13.6875 "/></g></g></g><g fill="#373741" fill-opacity="1"><g transform="translate(74.19199, 123.59488)"><g><path d="M 1.859375 -33.265625 C 1.859375 -42.867188 5.128906 -51 11.671875 -57.65625 C 18.222656 -64.3125 26.117188 -67.640625 35.359375 -67.640625 C 44.640625 -67.640625 52.53125 -64.320312 59.03125 -57.6875 C 65.53125 -51.0625 68.78125 -42.921875 68.78125 -33.265625 C 68.78125 -23.546875 65.582031 -15.367188 59.1875 -8.734375 C 52.800781 -2.109375 44.859375 1.203125 35.359375 1.203125 C 25.640625 1.203125 17.625 -2.082031 11.3125 -8.65625 C 5.007812 -15.226562 1.859375 -23.429688 1.859375 -33.265625 Z M 18.203125 -33.265625 C 18.203125 -29.773438 18.738281 -26.59375 19.8125 -23.71875 C 20.882812 -20.84375 22.757812 -18.410156 25.4375 -16.421875 C 28.125 -14.441406 31.429688 -13.453125 35.359375 -13.453125 C 40.992188 -13.453125 45.242188 -15.382812 48.109375 -19.25 C 50.984375 -23.113281 52.421875 -27.785156 52.421875 -33.265625 C 52.421875 -38.679688 50.957031 -43.332031 48.03125 -47.21875 C 45.101562 -51.113281 40.878906 -53.0625 35.359375 -53.0625 C 29.878906 -53.0625 25.648438 -51.113281 22.671875 -47.21875 C 19.691406 -43.332031 18.203125 -38.679688 18.203125 -33.265625 Z M 18.203125 -33.265625 "/></g></g></g><g fill="#373741" fill-opacity="1"><g transform="translate(149.641772, 123.59488)"><g><path d="M 4.828125 -66.4375 L 28.59375 -66.4375 C 34.976562 -66.4375 40.179688 -64.726562 44.203125 -61.3125 C 48.234375 -57.90625 50.25 -53.035156 50.25 -46.703125 C 50.25 -41.816406 49.023438 -37.722656 46.578125 -34.421875 C 44.140625 -31.117188 40.828125 -28.800781 36.640625 -27.46875 L 59.515625 0 L 40.265625 0 L 19.96875 -26.25 L 19.96875 0 L 4.828125 0 Z M 19.96875 -36.96875 L 21.75 -36.96875 C 23.144531 -36.96875 24.320312 -36.992188 25.28125 -37.046875 C 26.25 -37.097656 27.347656 -37.285156 28.578125 -37.609375 C 29.816406 -37.929688 30.8125 -38.382812 31.5625 -38.96875 C 32.320312 -39.5625 32.96875 -40.421875 33.5 -41.546875 C 34.039062 -42.679688 34.3125 -44.050781 34.3125 -45.65625 C 34.3125 -47.269531 34.039062 -48.640625 33.5 -49.765625 C 32.96875 -50.890625 32.320312 -51.75 31.5625 -52.34375 C 30.8125 -52.9375 29.816406 -53.394531 28.578125 -53.71875 C 27.347656 -54.039062 26.25 -54.226562 25.28125 -54.28125 C 24.320312 -54.332031 23.144531 -54.359375 21.75 -54.359375 L 19.96875 -54.359375 Z M 19.96875 -36.96875 "/></g></g></g><g fill="#373741" fill-opacity="1"><g transform="translate(212.127693, 123.59488)"><g><path d="M 42.84375 -66.4375 L 42.84375 -53.15625 L 19.96875 -53.15625 L 19.96875 -39.9375 L 41.875 -39.9375 L 41.875 -26.65625 L 19.96875 -26.65625 L 19.96875 -13.28125 L 42.84375 -13.28125 L 42.84375 0 L 4.828125 0 L 4.828125 -66.4375 Z M 42.84375 -66.4375 "/></g></g></g><g fill="#373741" fill-opacity="1"><g transform="translate(8.726782, 207.942047)"><g><path d="M 4.828125 -66.4375 L 24.078125 -66.4375 C 33.316406 -66.4375 41.207031 -63.28125 47.75 -56.96875 C 54.300781 -50.664062 57.578125 -42.765625 57.578125 -33.265625 C 57.578125 -23.703125 54.316406 -15.765625 47.796875 -9.453125 C 41.273438 -3.148438 33.367188 0 24.078125 0 L 4.828125 0 Z M 19.96875 -13.53125 L 22.3125 -13.53125 C 27.84375 -13.53125 32.363281 -15.394531 35.875 -19.125 C 39.394531 -22.851562 41.179688 -27.535156 41.234375 -33.171875 C 41.234375 -38.816406 39.472656 -43.515625 35.953125 -47.265625 C 32.441406 -51.023438 27.894531 -52.90625 22.3125 -52.90625 L 19.96875 -52.90625 Z M 19.96875 -13.53125 "/></g></g></g><g fill="#373741" fill-opacity="1"><g transform="translate(72.984168, 207.942047)"><g><path d="M 19.96875 -66.4375 L 19.96875 0 L 4.828125 0 L 4.828125 -66.4375 Z M 19.96875 -66.4375 "/></g></g></g><g fill="#373741" fill-opacity="1"><g transform="translate(102.61764, 207.942047)"><g><path d="M 64.90625 -37.203125 L 64.90625 -22.796875 C 63.1875 -14.898438 59.425781 -8.925781 53.625 -4.875 C 47.832031 -0.820312 41.363281 1.203125 34.21875 1.203125 C 25.257812 1.203125 17.625 -2.148438 11.3125 -8.859375 C 5.007812 -15.566406 1.859375 -23.671875 1.859375 -33.171875 C 1.859375 -42.835938 4.941406 -51 11.109375 -57.65625 C 17.285156 -64.3125 24.988281 -67.640625 34.21875 -67.640625 C 45.007812 -67.640625 53.546875 -63.859375 59.828125 -56.296875 L 49.921875 -45.421875 C 46.378906 -51.109375 41.441406 -53.953125 35.109375 -53.953125 C 30.441406 -53.953125 26.457031 -51.925781 23.15625 -47.875 C 19.851562 -43.820312 18.203125 -38.921875 18.203125 -33.171875 C 18.203125 -27.535156 19.851562 -22.71875 23.15625 -18.71875 C 26.457031 -14.71875 30.441406 -12.71875 35.109375 -12.71875 C 38.972656 -12.71875 42.34375 -13.882812 45.21875 -16.21875 C 48.09375 -18.5625 49.53125 -21.664062 49.53125 -25.53125 L 34.21875 -25.53125 L 34.21875 -37.203125 Z M 64.90625 -37.203125 "/></g></g></g><g fill="#373741" fill-opacity="1"><g transform="translate(174.202447, 207.942047)"><g><path d="M 19.96875 -66.4375 L 19.96875 0 L 4.828125 0 L 4.828125 -66.4375 Z M 19.96875 -66.4375 "/></g></g></g><g fill="#373741" fill-opacity="1"><g transform="translate(203.835923, 207.942047)"><g><path d="M 0.640625 -53.15625 L 0.640625 -66.4375 L 47.359375 -66.4375 L 47.359375 -53.15625 L 31.5625 -53.15625 L 31.5625 0 L 16.421875 0 L 16.421875 -53.15625 Z M 0.640625 -53.15625 "/></g></g></g><g fill="#373741" fill-opacity="1"><g transform="translate(256.659373, 207.942047)"><g><path d="M 38.578125 -66.4375 L 65.390625 0 L 49.125 0 L 44.21875 -13.28125 L 18.921875 -13.28125 L 14.015625 0 L -2.25 0 L 24.5625 -66.4375 Z M 39.0625 -26.578125 L 31.65625 -45.90625 L 31.484375 -45.90625 L 24.078125 -26.578125 Z M 39.0625 -26.578125 "/></g></g></g><g fill="#373741" fill-opacity="1"><g transform="translate(324.620729, 207.942047)"><g><path d="M 19.96875 -66.4375 L 19.96875 -13.28125 L 42.84375 -13.28125 L 42.84375 0 L 4.828125 0 L 4.828125 -66.4375 Z M 19.96875 -66.4375 "/></g></g></g><g fill="#373741" fill-opacity="1"><g transform="translate(8.726782, 292.289214)"><g><path d="M 29.3125 -67.640625 C 32.90625 -67.640625 36.421875 -67.113281 39.859375 -66.0625 C 43.296875 -65.019531 45.847656 -63.988281 47.515625 -62.96875 L 49.921875 -61.359375 L 43.8125 -49.28125 C 43.320312 -49.601562 42.644531 -50.019531 41.78125 -50.53125 C 40.925781 -51.039062 39.316406 -51.722656 36.953125 -52.578125 C 34.597656 -53.441406 32.398438 -53.875 30.359375 -53.875 C 27.835938 -53.875 25.890625 -53.335938 24.515625 -52.265625 C 23.148438 -51.191406 22.46875 -49.742188 22.46875 -47.921875 C 22.46875 -47.003906 22.789062 -46.15625 23.4375 -45.375 C 24.082031 -44.601562 25.179688 -43.769531 26.734375 -42.875 C 28.296875 -41.988281 29.664062 -41.273438 30.84375 -40.734375 C 32.019531 -40.203125 33.84375 -39.398438 36.3125 -38.328125 C 40.613281 -36.503906 44.28125 -34.019531 47.3125 -30.875 C 50.34375 -27.738281 51.859375 -24.1875 51.859375 -20.21875 C 51.859375 -16.40625 51.171875 -13.070312 49.796875 -10.21875 C 48.429688 -7.375 46.554688 -5.144531 44.171875 -3.53125 C 41.785156 -1.925781 39.140625 -0.738281 36.234375 0.03125 C 33.335938 0.8125 30.195312 1.203125 26.8125 1.203125 C 23.914062 1.203125 21.070312 0.90625 18.28125 0.3125 C 15.488281 -0.269531 13.148438 -1.003906 11.265625 -1.890625 C 9.390625 -2.773438 7.703125 -3.644531 6.203125 -4.5 C 4.703125 -5.363281 3.601562 -6.09375 2.90625 -6.6875 L 1.859375 -7.5625 L 9.421875 -20.296875 C 10.066406 -19.753906 10.953125 -19.066406 12.078125 -18.234375 C 13.203125 -17.398438 15.203125 -16.285156 18.078125 -14.890625 C 20.953125 -13.492188 23.488281 -12.796875 25.6875 -12.796875 C 32.070312 -12.796875 35.265625 -14.972656 35.265625 -19.328125 C 35.265625 -20.242188 35.035156 -21.085938 34.578125 -21.859375 C 34.128906 -22.640625 33.328125 -23.421875 32.171875 -24.203125 C 31.015625 -24.984375 29.992188 -25.597656 29.109375 -26.046875 C 28.222656 -26.503906 26.773438 -27.203125 24.765625 -28.140625 C 22.753906 -29.085938 21.265625 -29.800781 20.296875 -30.28125 C 16.265625 -32.269531 13.148438 -34.753906 10.953125 -37.734375 C 8.753906 -40.710938 7.65625 -43.921875 7.65625 -47.359375 C 7.65625 -53.316406 9.851562 -58.1875 14.25 -61.96875 C 18.65625 -65.75 23.675781 -67.640625 29.3125 -67.640625 Z M 29.3125 -67.640625 "/></g></g></g><g fill="#373741" fill-opacity="1"><g transform="translate(67.669834, 292.289214)"><g><path d="M 0.640625 -53.15625 L 0.640625 -66.4375 L 47.359375 -66.4375 L 47.359375 -53.15625 L 31.5625 -53.15625 L 31.5625 0 L 16.421875 0 L 16.421875 -53.15625 Z M 0.640625 -53.15625 "/></g></g></g><g fill="#373741" fill-opacity="1"><g transform="translate(120.493279, 292.289214)"><g><path d="M 55.890625 -66.4375 L 55.890625 -23.59375 C 55.890625 -15.4375 53.6875 -9.265625 49.28125 -5.078125 C 44.882812 -0.890625 38.441406 1.203125 29.953125 1.203125 C 21.472656 1.203125 15.03125 -0.890625 10.625 -5.078125 C 6.226562 -9.265625 4.03125 -15.4375 4.03125 -23.59375 L 4.03125 -66.4375 L 19.171875 -66.4375 L 19.171875 -28.03125 C 19.171875 -22.65625 20.015625 -18.921875 21.703125 -16.828125 C 23.390625 -14.734375 26.140625 -13.6875 29.953125 -13.6875 C 33.765625 -13.6875 36.515625 -14.734375 38.203125 -16.828125 C 39.898438 -18.921875 40.75 -22.65625 40.75 -28.03125 L 40.75 -66.4375 Z M 55.890625 -66.4375 "/></g></g></g><g fill="#373741" fill-opacity="1"><g transform="translate(185.233798, 292.289214)"><g><path d="M 4.828125 -66.4375 L 24.078125 -66.4375 C 33.316406 -66.4375 41.207031 -63.28125 47.75 -56.96875 C 54.300781 -50.664062 57.578125 -42.765625 57.578125 -33.265625 C 57.578125 -23.703125 54.316406 -15.765625 47.796875 -9.453125 C 41.273438 -3.148438 33.367188 0 24.078125 0 L 4.828125 0 Z M 19.96875 -13.53125 L 22.3125 -13.53125 C 27.84375 -13.53125 32.363281 -15.394531 35.875 -19.125 C 39.394531 -22.851562 41.179688 -27.535156 41.234375 -33.171875 C 41.234375 -38.816406 39.472656 -43.515625 35.953125 -47.265625 C 32.441406 -51.023438 27.894531 -52.90625 22.3125 -52.90625 L 19.96875 -52.90625 Z M 19.96875 -13.53125 "/></g></g></g><g fill="#373741" fill-opacity="1"><g transform="translate(249.491189, 292.289214)"><g><path d="M 19.96875 -66.4375 L 19.96875 0 L 4.828125 0 L 4.828125 -66.4375 Z M 19.96875 -66.4375 "/></g></g></g><g clip-path="url(#38a6f158ab)"><g clip-path="url(#ff1276ed38)"><path fill="#373741" d="M 280.226562 227.507812 L 346.605469 227.507812 L 346.605469 293.890625 L 280.226562 293.890625 Z M 280.226562 227.507812 " fill-opacity="1" fill-rule="nonzero"/></g></g></svg>