<svg version="1.2" preserveAspectRatio="xMidYMid meet" viewBox="4.5 117.749997174 375.75 134.249996778" zoomAndPan="magnify" xmlns:xlink="http://www.w3.org/1999/xlink" xmlns="http://www.w3.org/2000/svg" style="max-height: 500px" width="375.75" height="134.249996778"><defs><clipPath id="e507dc46ef"><path d="M 88.941406 150 L 170 150 L 170 172 L 88.941406 172 Z M 88.941406 150"/></clipPath><clipPath id="801cbe6275"><path d="M 122 124.730469 L 192 124.730469 L 192 169 L 122 169 Z M 122 124.730469"/></clipPath><clipPath id="8e090ed826"><path d="M 122 150 L 218 150 L 218 197.480469 L 122 197.480469 Z M 122 150"/></clipPath><clipPath id="b031518748"><path d="M 183 124.730469 L 243 124.730469 L 243 197.480469 L 183 197.480469 Z M 183 124.730469"/></clipPath></defs><g id="646258eb42"><g clip-path="url(#e507dc46ef)" clip-rule="nonzero"><path d="M 169.210938 169.441406 C 167.558594 167.082031 166.574219 164.210938 166.574219 161.105469 C 166.574219 155.285156 161.976562 150.527344 156.234375 150.214844 L 99.84375 150.214844 C 93.824219 150.214844 88.949219 155.089844 88.949219 161.105469 C 88.949219 167.121094 93.824219 172 99.84375 172 L 156.664062 172 C 160.992188 171.878906 165.238281 170.898438 169.210938 169.441406 Z M 169.210938 169.441406" style="stroke:none;fill-rule:nonzero;fill:#ffffff;fill-opacity:1;"/></g><g clip-path="url(#801cbe6275)" clip-rule="nonzero"><path d="M 170.234375 161.105469 C 170.234375 163.742188 171.175781 166.140625 172.710938 168.027344 C 180.773438 164.410156 187.535156 159.101562 191.585938 155.441406 C 188.832031 138.0625 173.773438 124.730469 155.644531 124.730469 C 140.777344 124.730469 127.960938 133.695312 122.335938 146.515625 L 155.644531 146.515625 C 163.703125 146.515625 170.234375 153.042969 170.234375 161.105469 Z M 170.234375 161.105469" style="stroke:none;fill-rule:nonzero;fill:#ffffff;fill-opacity:1;"/></g><g clip-path="url(#8e090ed826)" clip-rule="nonzero"><path d="M 214.746094 168.339844 C 218.757812 163.859375 218.328125 156.9375 213.84375 152.964844 C 209.359375 148.953125 202.480469 149.386719 198.46875 153.871094 C 198.269531 154.105469 178.609375 175.695312 155.644531 175.695312 L 122.335938 175.695312 C 127.878906 188.359375 140.464844 197.246094 155.09375 197.480469 C 155.289062 197.480469 155.445312 197.480469 155.644531 197.480469 C 188.519531 197.480469 213.726562 169.519531 214.746094 168.339844 Z M 214.746094 168.339844" style="stroke:none;fill-rule:nonzero;fill:#ffffff;fill-opacity:1;"/></g><path d="M 274.679688 150.214844 L 245.144531 150.214844 C 246.128906 153.671875 246.640625 157.332031 246.640625 161.105469 C 246.640625 164.882812 246.128906 168.539062 245.144531 172 L 274.679688 172 C 280.695312 172 285.570312 167.121094 285.570312 161.105469 C 285.570312 155.089844 280.695312 150.214844 274.679688 150.214844 Z M 274.679688 150.214844" style="stroke:none;fill-rule:nonzero;fill:#ffffff;fill-opacity:1;"/><g clip-path="url(#b031518748)" clip-rule="nonzero"><path d="M 206.609375 124.730469 C 198.035156 124.730469 190.132812 127.71875 183.878906 132.714844 C 189.226562 138.0625 193.121094 144.902344 194.769531 152.574219 C 197.40625 148.914062 201.730469 146.515625 206.609375 146.515625 C 214.667969 146.515625 221.195312 153.042969 221.195312 161.105469 C 221.195312 165 219.664062 168.578125 217.148438 171.171875 C 214.984375 173.53125 204.289062 184.660156 188.558594 192.644531 C 193.867188 195.710938 200.039062 197.441406 206.609375 197.441406 C 226.664062 197.441406 242.984375 181.121094 242.984375 161.066406 C 242.984375 141.050781 226.664062 124.730469 206.609375 124.730469 Z M 206.609375 124.730469" style="stroke:none;fill-rule:nonzero;fill:#ffffff;fill-opacity:1;"/></g><g style="fill:#ffffff;fill-opacity:1;"><g transform="translate(10.939781, 240.148117)"><path d="M 8.96875 0 L 0.953125 -29.25 L 3.671875 -29.25 L 10.296875 -4.09375 L 10.53125 -4.09375 L 17.15625 -29.25 L 20.234375 -29.25 L 26.859375 -4.09375 L 27.09375 -4.09375 L 33.71875 -29.25 L 36.453125 -29.25 L 28.4375 0 L 25.578125 0 L 18.796875 -24.8125 L 18.609375 -24.8125 L 11.828125 0 Z M 8.96875 0" style="stroke:none"/></g></g><g style="fill:#ffffff;fill-opacity:1;"><g transform="translate(46.291896, 240.148117)"><path d="M 11.890625 0.453125 C 9.992188 0.453125 8.316406 -0.0234375 6.859375 -0.984375 C 5.410156 -1.941406 4.273438 -3.269531 3.453125 -4.96875 C 2.640625 -6.675781 2.234375 -8.644531 2.234375 -10.875 C 2.234375 -13.113281 2.640625 -15.085938 3.453125 -16.796875 C 4.273438 -18.503906 5.410156 -19.835938 6.859375 -20.796875 C 8.316406 -21.753906 9.992188 -22.234375 11.890625 -22.234375 C 13.773438 -22.234375 15.441406 -21.753906 16.890625 -20.796875 C 18.335938 -19.835938 19.472656 -18.503906 20.296875 -16.796875 C 21.117188 -15.085938 21.53125 -13.113281 21.53125 -10.875 C 21.53125 -8.644531 21.117188 -6.675781 20.296875 -4.96875 C 19.484375 -3.269531 18.347656 -1.941406 16.890625 -0.984375 C 15.441406 -0.0234375 13.773438 0.453125 11.890625 0.453125 Z M 11.890625 -1.875 C 13.410156 -1.875 14.695312 -2.28125 15.75 -3.09375 C 16.8125 -3.914062 17.613281 -5.003906 18.15625 -6.359375 C 18.707031 -7.722656 18.984375 -9.226562 18.984375 -10.875 C 18.984375 -12.507812 18.707031 -14.007812 18.15625 -15.375 C 17.613281 -16.75 16.8125 -17.847656 15.75 -18.671875 C 14.695312 -19.503906 13.410156 -19.921875 11.890625 -19.921875 C 10.367188 -19.921875 9.078125 -19.503906 8.015625 -18.671875 C 6.953125 -17.847656 6.144531 -16.75 5.59375 -15.375 C 5.050781 -14.007812 4.78125 -12.507812 4.78125 -10.875 C 4.78125 -9.226562 5.050781 -7.722656 5.59375 -6.359375 C 6.144531 -5.003906 6.945312 -3.914062 8 -3.09375 C 9.0625 -2.28125 10.359375 -1.875 11.890625 -1.875 Z M 11.890625 -1.875" style="stroke:none"/></g></g><g style="fill:#ffffff;fill-opacity:1;"><g transform="translate(70.060056, 240.148117)"><path d="M 3.359375 0 L 3.359375 -21.9375 L 5.828125 -21.9375 L 5.828125 -18.5625 L 6.015625 -18.5625 C 6.453125 -19.664062 7.210938 -20.554688 8.296875 -21.234375 C 9.390625 -21.921875 10.628906 -22.265625 12.015625 -22.265625 C 12.222656 -22.265625 12.453125 -22.257812 12.703125 -22.25 C 12.960938 -22.238281 13.179688 -22.226562 13.359375 -22.21875 L 13.359375 -19.640625 C 13.242188 -19.660156 13.039062 -19.6875 12.75 -19.71875 C 12.46875 -19.757812 12.160156 -19.78125 11.828125 -19.78125 C 10.679688 -19.78125 9.660156 -19.539062 8.765625 -19.0625 C 7.878906 -18.582031 7.179688 -17.914062 6.671875 -17.0625 C 6.160156 -16.21875 5.90625 -15.253906 5.90625 -14.171875 L 5.90625 0 Z M 3.359375 0" style="stroke:none"/></g></g><g style="fill:#ffffff;fill-opacity:1;"><g transform="translate(84.400937, 240.148117)"><path d="M 5.671875 -8.28125 L 5.640625 -11.609375 L 6.21875 -11.609375 L 16.5 -21.9375 L 19.703125 -21.9375 L 9.5625 -11.765625 L 9.328125 -11.71875 Z M 3.359375 0 L 3.359375 -29.25 L 5.90625 -29.25 L 5.90625 0 Z M 17.03125 0 L 8.109375 -11.265625 L 9.9375 -13.03125 L 20.28125 0 Z M 17.03125 0" style="stroke:none"/></g></g><g style="fill:#ffffff;fill-opacity:1;"><g transform="translate(105.526602, 240.148117)"><path d="M 12.375 -21.9375 L 12.375 -19.71875 L 1.59375 -19.71875 L 1.59375 -21.9375 Z M 4.96875 0 L 4.96875 -25.15625 C 4.96875 -26.332031 5.238281 -27.320312 5.78125 -28.125 C 6.332031 -28.9375 7.050781 -29.550781 7.9375 -29.96875 C 8.820312 -30.394531 9.757812 -30.609375 10.75 -30.609375 C 11.414062 -30.609375 11.96875 -30.550781 12.40625 -30.4375 C 12.851562 -30.332031 13.207031 -30.226562 13.46875 -30.125 L 12.71875 -27.890625 C 12.53125 -27.953125 12.296875 -28.019531 12.015625 -28.09375 C 11.742188 -28.164062 11.398438 -28.203125 10.984375 -28.203125 C 9.878906 -28.203125 9.023438 -27.890625 8.421875 -27.265625 C 7.828125 -26.648438 7.53125 -25.769531 7.53125 -24.625 L 7.515625 0 Z M 4.96875 0" style="stroke:none"/></g></g><g style="fill:#ffffff;fill-opacity:1;"><g transform="translate(119.638953, 240.148117)"><path d="M 5.90625 -29.25 L 5.90625 0 L 3.359375 0 L 3.359375 -29.25 Z M 5.90625 -29.25" style="stroke:none"/></g></g><g style="fill:#ffffff;fill-opacity:1;"><g transform="translate(128.894825, 240.148117)"><path d="M 11.890625 0.453125 C 9.992188 0.453125 8.316406 -0.0234375 6.859375 -0.984375 C 5.410156 -1.941406 4.273438 -3.269531 3.453125 -4.96875 C 2.640625 -6.675781 2.234375 -8.644531 2.234375 -10.875 C 2.234375 -13.113281 2.640625 -15.085938 3.453125 -16.796875 C 4.273438 -18.503906 5.410156 -19.835938 6.859375 -20.796875 C 8.316406 -21.753906 9.992188 -22.234375 11.890625 -22.234375 C 13.773438 -22.234375 15.441406 -21.753906 16.890625 -20.796875 C 18.335938 -19.835938 19.472656 -18.503906 20.296875 -16.796875 C 21.117188 -15.085938 21.53125 -13.113281 21.53125 -10.875 C 21.53125 -8.644531 21.117188 -6.675781 20.296875 -4.96875 C 19.484375 -3.269531 18.347656 -1.941406 16.890625 -0.984375 C 15.441406 -0.0234375 13.773438 0.453125 11.890625 0.453125 Z M 11.890625 -1.875 C 13.410156 -1.875 14.695312 -2.28125 15.75 -3.09375 C 16.8125 -3.914062 17.613281 -5.003906 18.15625 -6.359375 C 18.707031 -7.722656 18.984375 -9.226562 18.984375 -10.875 C 18.984375 -12.507812 18.707031 -14.007812 18.15625 -15.375 C 17.613281 -16.75 16.8125 -17.847656 15.75 -18.671875 C 14.695312 -19.503906 13.410156 -19.921875 11.890625 -19.921875 C 10.367188 -19.921875 9.078125 -19.503906 8.015625 -18.671875 C 6.953125 -17.847656 6.144531 -16.75 5.59375 -15.375 C 5.050781 -14.007812 4.78125 -12.507812 4.78125 -10.875 C 4.78125 -9.226562 5.050781 -7.722656 5.59375 -6.359375 C 6.144531 -5.003906 6.945312 -3.914062 8 -3.09375 C 9.0625 -2.28125 10.359375 -1.875 11.890625 -1.875 Z M 11.890625 -1.875" style="stroke:none"/></g></g><g style="fill:#ffffff;fill-opacity:1;"><g transform="translate(151.920176, 240.148117)"><path d="M 8.234375 0 L 1.59375 -21.9375 L 4.28125 -21.9375 L 9.484375 -3.84375 L 9.671875 -3.84375 L 14.859375 -21.9375 L 17.546875 -21.9375 L 22.6875 -3.890625 L 22.890625 -3.890625 L 28.09375 -21.9375 L 30.78125 -21.9375 L 24.15625 0 L 21.515625 0 L 16.328125 -17.984375 L 16.046875 -17.984375 L 10.859375 0 Z M 8.234375 0" style="stroke:none"/></g></g><g style="fill:#ffffff;fill-opacity:1;"><g transform="translate(184.30144, 240.148117)"><path d="" style="stroke:none"/></g></g><g style="fill:#ffffff;fill-opacity:1;"><g transform="translate(195.614175, 240.148117)"><path d="M 3.921875 0 L 1.125 0 L 11.765625 -29.25 L 14.625 -29.25 L 25.265625 0 L 22.46875 0 L 13.296875 -25.78125 L 13.09375 -25.78125 Z M 5.9375 -11.21875 L 20.453125 -11.21875 L 20.453125 -8.8125 L 5.9375 -8.8125 Z M 5.9375 -11.21875" style="stroke:none"/></g></g><g style="fill:#ffffff;fill-opacity:1;"><g transform="translate(222.010544, 240.148117)"><path d="M 17.296875 -8.390625 L 17.296875 -21.9375 L 19.84375 -21.9375 L 19.84375 0 L 17.296875 0 L 17.296875 -3.640625 L 17.09375 -3.640625 C 16.582031 -2.515625 15.769531 -1.578125 14.65625 -0.828125 C 13.539062 -0.0859375 12.175781 0.28125 10.5625 0.28125 C 9.164062 0.28125 7.925781 -0.0234375 6.84375 -0.640625 C 5.757812 -1.253906 4.90625 -2.15625 4.28125 -3.34375 C 3.664062 -4.53125 3.359375 -5.992188 3.359375 -7.734375 L 3.359375 -21.9375 L 5.90625 -21.9375 L 5.90625 -7.890625 C 5.90625 -6.171875 6.40625 -4.789062 7.40625 -3.75 C 8.414062 -2.707031 9.710938 -2.1875 11.296875 -2.1875 C 12.285156 -2.1875 13.238281 -2.421875 14.15625 -2.890625 C 15.070312 -3.367188 15.820312 -4.066406 16.40625 -4.984375 C 17 -5.910156 17.296875 -7.046875 17.296875 -8.390625 Z M 17.296875 -8.390625" style="stroke:none"/></g></g><g style="fill:#ffffff;fill-opacity:1;"><g transform="translate(245.20736, 240.148117)"><path d="M 12 -21.9375 L 12 -19.71875 L 1.53125 -19.71875 L 1.53125 -21.9375 Z M 4.796875 -27.1875 L 7.359375 -27.1875 L 7.359375 -5.734375 C 7.359375 -4.816406 7.515625 -4.097656 7.828125 -3.578125 C 8.140625 -3.054688 8.546875 -2.6875 9.046875 -2.46875 C 9.554688 -2.257812 10.097656 -2.15625 10.671875 -2.15625 C 11.003906 -2.15625 11.289062 -2.175781 11.53125 -2.21875 C 11.769531 -2.257812 11.976562 -2.304688 12.15625 -2.359375 L 12.703125 -0.0625 C 12.453125 0.03125 12.144531 0.117188 11.78125 0.203125 C 11.414062 0.285156 10.96875 0.328125 10.4375 0.328125 C 9.507812 0.328125 8.613281 0.125 7.75 -0.28125 C 6.882812 -0.695312 6.175781 -1.304688 5.625 -2.109375 C 5.070312 -2.921875 4.796875 -3.925781 4.796875 -5.125 Z M 4.796875 -27.1875" style="stroke:none"/></g></g><g style="fill:#ffffff;fill-opacity:1;"><g transform="translate(259.391106, 240.148117)"><path d="M 11.890625 0.453125 C 9.992188 0.453125 8.316406 -0.0234375 6.859375 -0.984375 C 5.410156 -1.941406 4.273438 -3.269531 3.453125 -4.96875 C 2.640625 -6.675781 2.234375 -8.644531 2.234375 -10.875 C 2.234375 -13.113281 2.640625 -15.085938 3.453125 -16.796875 C 4.273438 -18.503906 5.410156 -19.835938 6.859375 -20.796875 C 8.316406 -21.753906 9.992188 -22.234375 11.890625 -22.234375 C 13.773438 -22.234375 15.441406 -21.753906 16.890625 -20.796875 C 18.335938 -19.835938 19.472656 -18.503906 20.296875 -16.796875 C 21.117188 -15.085938 21.53125 -13.113281 21.53125 -10.875 C 21.53125 -8.644531 21.117188 -6.675781 20.296875 -4.96875 C 19.484375 -3.269531 18.347656 -1.941406 16.890625 -0.984375 C 15.441406 -0.0234375 13.773438 0.453125 11.890625 0.453125 Z M 11.890625 -1.875 C 13.410156 -1.875 14.695312 -2.28125 15.75 -3.09375 C 16.8125 -3.914062 17.613281 -5.003906 18.15625 -6.359375 C 18.707031 -7.722656 18.984375 -9.226562 18.984375 -10.875 C 18.984375 -12.507812 18.707031 -14.007812 18.15625 -15.375 C 17.613281 -16.75 16.8125 -17.847656 15.75 -18.671875 C 14.695312 -19.503906 13.410156 -19.921875 11.890625 -19.921875 C 10.367188 -19.921875 9.078125 -19.503906 8.015625 -18.671875 C 6.953125 -17.847656 6.144531 -16.75 5.59375 -15.375 C 5.050781 -14.007812 4.78125 -12.507812 4.78125 -10.875 C 4.78125 -9.226562 5.050781 -7.722656 5.59375 -6.359375 C 6.144531 -5.003906 6.945312 -3.914062 8 -3.09375 C 9.0625 -2.28125 10.359375 -1.875 11.890625 -1.875 Z M 11.890625 -1.875" style="stroke:none"/></g></g><g style="fill:#ffffff;fill-opacity:1;"><g transform="translate(283.159266, 240.148117)"><path d="M 3.359375 8.234375 L 3.359375 -21.9375 L 5.828125 -21.9375 L 5.828125 -17.75 L 6.125 -17.75 C 6.425781 -18.40625 6.84375 -19.078125 7.375 -19.765625 C 7.914062 -20.460938 8.625 -21.046875 9.5 -21.515625 C 10.382812 -21.992188 11.5 -22.234375 12.84375 -22.234375 C 14.644531 -22.234375 16.222656 -21.757812 17.578125 -20.8125 C 18.941406 -19.863281 20 -18.539062 20.75 -16.84375 C 21.507812 -15.144531 21.890625 -13.164062 21.890625 -10.90625 C 21.890625 -8.644531 21.507812 -6.660156 20.75 -4.953125 C 20 -3.253906 18.941406 -1.925781 17.578125 -0.96875 C 16.222656 -0.0195312 14.65625 0.453125 12.875 0.453125 C 11.550781 0.453125 10.441406 0.21875 9.546875 -0.25 C 8.660156 -0.726562 7.941406 -1.316406 7.390625 -2.015625 C 6.835938 -2.722656 6.414062 -3.410156 6.125 -4.078125 L 5.90625 -4.078125 L 5.90625 8.234375 Z M 5.875 -10.953125 C 5.875 -9.179688 6.132812 -7.613281 6.65625 -6.25 C 7.1875 -4.882812 7.945312 -3.8125 8.9375 -3.03125 C 9.9375 -2.257812 11.144531 -1.875 12.5625 -1.875 C 14.019531 -1.875 15.25 -2.273438 16.25 -3.078125 C 17.257812 -3.878906 18.03125 -4.960938 18.5625 -6.328125 C 19.09375 -7.703125 19.359375 -9.242188 19.359375 -10.953125 C 19.359375 -12.640625 19.097656 -14.15625 18.578125 -15.5 C 18.054688 -16.851562 17.289062 -17.925781 16.28125 -18.71875 C 15.269531 -19.519531 14.03125 -19.921875 12.5625 -19.921875 C 11.132812 -19.921875 9.921875 -19.535156 8.921875 -18.765625 C 7.921875 -18.003906 7.160156 -16.945312 6.640625 -15.59375 C 6.128906 -14.25 5.875 -12.703125 5.875 -10.953125 Z M 5.875 -10.953125" style="stroke:none"/></g></g><g style="fill:#ffffff;fill-opacity:1;"><g transform="translate(307.284515, 240.148117)"><path d="M 3.390625 0 L 3.390625 -21.9375 L 5.9375 -21.9375 L 5.9375 0 Z M 4.6875 -25.703125 C 4.164062 -25.703125 3.71875 -25.878906 3.34375 -26.234375 C 2.96875 -26.597656 2.78125 -27.03125 2.78125 -27.53125 C 2.78125 -28.039062 2.96875 -28.472656 3.34375 -28.828125 C 3.71875 -29.179688 4.164062 -29.359375 4.6875 -29.359375 C 5.207031 -29.359375 5.648438 -29.179688 6.015625 -28.828125 C 6.390625 -28.472656 6.578125 -28.039062 6.578125 -27.53125 C 6.578125 -27.03125 6.390625 -26.597656 6.015625 -26.234375 C 5.648438 -25.878906 5.207031 -25.703125 4.6875 -25.703125 Z M 4.6875 -25.703125" style="stroke:none"/></g></g><g style="fill:#ffffff;fill-opacity:1;"><g transform="translate(316.611811, 240.148117)"><path d="M 5.90625 -29.25 L 5.90625 0 L 3.359375 0 L 3.359375 -29.25 Z M 5.90625 -29.25" style="stroke:none"/></g></g><g style="fill:#ffffff;fill-opacity:1;"><g transform="translate(325.867683, 240.148117)"><path d="M 11.890625 0.453125 C 9.992188 0.453125 8.316406 -0.0234375 6.859375 -0.984375 C 5.410156 -1.941406 4.273438 -3.269531 3.453125 -4.96875 C 2.640625 -6.675781 2.234375 -8.644531 2.234375 -10.875 C 2.234375 -13.113281 2.640625 -15.085938 3.453125 -16.796875 C 4.273438 -18.503906 5.410156 -19.835938 6.859375 -20.796875 C 8.316406 -21.753906 9.992188 -22.234375 11.890625 -22.234375 C 13.773438 -22.234375 15.441406 -21.753906 16.890625 -20.796875 C 18.335938 -19.835938 19.472656 -18.503906 20.296875 -16.796875 C 21.117188 -15.085938 21.53125 -13.113281 21.53125 -10.875 C 21.53125 -8.644531 21.117188 -6.675781 20.296875 -4.96875 C 19.484375 -3.269531 18.347656 -1.941406 16.890625 -0.984375 C 15.441406 -0.0234375 13.773438 0.453125 11.890625 0.453125 Z M 11.890625 -1.875 C 13.410156 -1.875 14.695312 -2.28125 15.75 -3.09375 C 16.8125 -3.914062 17.613281 -5.003906 18.15625 -6.359375 C 18.707031 -7.722656 18.984375 -9.226562 18.984375 -10.875 C 18.984375 -12.507812 18.707031 -14.007812 18.15625 -15.375 C 17.613281 -16.75 16.8125 -17.847656 15.75 -18.671875 C 14.695312 -19.503906 13.410156 -19.921875 11.890625 -19.921875 C 10.367188 -19.921875 9.078125 -19.503906 8.015625 -18.671875 C 6.953125 -17.847656 6.144531 -16.75 5.59375 -15.375 C 5.050781 -14.007812 4.78125 -12.507812 4.78125 -10.875 C 4.78125 -9.226562 5.050781 -7.722656 5.59375 -6.359375 C 6.144531 -5.003906 6.945312 -3.914062 8 -3.09375 C 9.0625 -2.28125 10.359375 -1.875 11.890625 -1.875 Z M 11.890625 -1.875" style="stroke:none"/></g></g><g style="fill:#ffffff;fill-opacity:1;"><g transform="translate(349.635843, 240.148117)"><path d="M 12 -21.9375 L 12 -19.71875 L 1.53125 -19.71875 L 1.53125 -21.9375 Z M 4.796875 -27.1875 L 7.359375 -27.1875 L 7.359375 -5.734375 C 7.359375 -4.816406 7.515625 -4.097656 7.828125 -3.578125 C 8.140625 -3.054688 8.546875 -2.6875 9.046875 -2.46875 C 9.554688 -2.257812 10.097656 -2.15625 10.671875 -2.15625 C 11.003906 -2.15625 11.289062 -2.175781 11.53125 -2.21875 C 11.769531 -2.257812 11.976562 -2.304688 12.15625 -2.359375 L 12.703125 -0.0625 C 12.453125 0.03125 12.144531 0.117188 11.78125 0.203125 C 11.414062 0.285156 10.96875 0.328125 10.4375 0.328125 C 9.507812 0.328125 8.613281 0.125 7.75 -0.28125 C 6.882812 -0.695312 6.175781 -1.304688 5.625 -2.109375 C 5.070312 -2.921875 4.796875 -3.925781 4.796875 -5.125 Z M 4.796875 -27.1875" style="stroke:none"/></g></g></g></svg>