<svg version="1.2" preserveAspectRatio="xMidYMid meet" viewBox="52.50000000000001 117.749997174 270 99.74999760600001" zoomAndPan="magnify" xmlns:xlink="http://www.w3.org/1999/xlink" xmlns="http://www.w3.org/2000/svg" style="max-height: 500px" width="270" height="99.74999760600001"><defs><clipPath id="c05df5edec"><path d="M 112.5 140 L 174 140 L 174 157 L 112.5 157 Z M 112.5 140"/></clipPath><clipPath id="5e8f2e7207"><path d="M 137 120.714844 L 191 120.714844 L 191 154 L 137 154 Z M 137 120.714844"/></clipPath><clipPath id="1b8b3181fc"><path d="M 137 140 L 211 140 L 211 176.214844 L 137 176.214844 Z M 137 140"/></clipPath><clipPath id="7579bda51e"><path d="M 231 140 L 262.5 140 L 262.5 157 L 231 157 Z M 231 140"/></clipPath><clipPath id="5b659b2239"><path d="M 184 120.714844 L 231 120.714844 L 231 176.214844 L 184 176.214844 Z M 184 120.714844"/></clipPath></defs><g id="2931ffc950"><g clip-path="url(#c05df5edec)" clip-rule="nonzero"><path d="M 173.730469 154.824219 C 172.46875 153.023438 171.71875 150.832031 171.71875 148.464844 C 171.71875 144.023438 168.210938 140.394531 163.828125 140.152344 L 120.808594 140.152344 C 116.21875 140.152344 112.5 143.875 112.5 148.464844 C 112.5 153.054688 116.21875 156.773438 120.808594 156.773438 L 164.160156 156.773438 C 167.460938 156.683594 170.699219 155.933594 173.730469 154.824219 Z M 173.730469 154.824219" style="stroke:none;fill-rule:nonzero;fill:#000000;fill-opacity:1;"/></g><g clip-path="url(#5e8f2e7207)" clip-rule="nonzero"><path d="M 174.511719 148.464844 C 174.511719 150.472656 175.230469 152.304688 176.398438 153.742188 C 182.550781 150.984375 187.710938 146.933594 190.800781 144.144531 C 188.699219 130.882812 177.210938 120.714844 163.378906 120.714844 C 152.039062 120.714844 142.261719 127.554688 137.96875 137.332031 L 163.378906 137.332031 C 169.53125 137.332031 174.511719 142.3125 174.511719 148.464844 Z M 174.511719 148.464844" style="stroke:none;fill-rule:nonzero;fill:#000000;fill-opacity:1;"/></g><g clip-path="url(#1b8b3181fc)" clip-rule="nonzero"><path d="M 208.46875 153.984375 C 211.53125 150.5625 211.199219 145.285156 207.78125 142.253906 C 204.359375 139.191406 199.109375 139.523438 196.050781 142.941406 C 195.898438 143.125 180.898438 159.59375 163.378906 159.59375 L 137.96875 159.59375 C 142.199219 169.253906 151.800781 176.035156 162.960938 176.214844 C 163.109375 176.214844 163.230469 176.214844 163.378906 176.214844 C 188.460938 176.214844 207.691406 154.882812 208.46875 153.984375 Z M 208.46875 153.984375" style="stroke:none;fill-rule:nonzero;fill:#000000;fill-opacity:1;"/></g><g clip-path="url(#7579bda51e)" clip-rule="nonzero"><path d="M 254.191406 140.152344 L 231.660156 140.152344 C 232.410156 142.792969 232.800781 145.582031 232.800781 148.464844 C 232.800781 151.34375 232.410156 154.132812 231.660156 156.773438 L 254.191406 156.773438 C 258.78125 156.773438 262.5 153.054688 262.5 148.464844 C 262.5 143.875 258.78125 140.152344 254.191406 140.152344 Z M 254.191406 140.152344" style="stroke:none;fill-rule:nonzero;fill:#000000;fill-opacity:1;"/></g><g clip-path="url(#5b659b2239)" clip-rule="nonzero"><path d="M 202.261719 120.714844 C 195.71875 120.714844 189.691406 122.992188 184.921875 126.804688 C 189 130.882812 191.96875 136.101562 193.230469 141.953125 C 195.238281 139.164062 198.539062 137.332031 202.261719 137.332031 C 208.410156 137.332031 213.390625 142.3125 213.390625 148.464844 C 213.390625 151.433594 212.21875 154.164062 210.300781 156.144531 C 208.648438 157.941406 200.488281 166.433594 188.488281 172.523438 C 192.539062 174.863281 197.25 176.183594 202.261719 176.183594 C 217.558594 176.183594 230.011719 163.734375 230.011719 148.433594 C 230.011719 133.164062 217.558594 120.714844 202.261719 120.714844 Z M 202.261719 120.714844" style="stroke:none;fill-rule:nonzero;fill:#000000;fill-opacity:1;"/></g><g style="fill:#000000;fill-opacity:1;"><g transform="translate(53.140894, 208.54365)"><path d="M 6.828125 0 L 0.734375 -22.265625 L 2.796875 -22.265625 L 7.84375 -3.125 L 8.015625 -3.125 L 13.046875 -22.265625 L 15.40625 -22.265625 L 20.453125 -3.125 L 20.625 -3.125 L 25.65625 -22.265625 L 27.734375 -22.265625 L 21.640625 0 L 19.46875 0 L 14.296875 -18.875 L 14.15625 -18.875 L 9 0 Z M 6.828125 0" style="stroke:none"/></g></g><g style="fill:#000000;fill-opacity:1;"><g transform="translate(80.04321, 208.54365)"><path d="M 9.046875 0.34375 C 7.597656 0.34375 6.320312 -0.0195312 5.21875 -0.75 C 4.113281 -1.476562 3.25 -2.488281 2.625 -3.78125 C 2.007812 -5.082031 1.703125 -6.578125 1.703125 -8.265625 C 1.703125 -9.984375 2.007812 -11.488281 2.625 -12.78125 C 3.25 -14.082031 4.113281 -15.097656 5.21875 -15.828125 C 6.320312 -16.554688 7.597656 -16.921875 9.046875 -16.921875 C 10.484375 -16.921875 11.753906 -16.554688 12.859375 -15.828125 C 13.960938 -15.097656 14.828125 -14.082031 15.453125 -12.78125 C 16.078125 -11.488281 16.390625 -9.984375 16.390625 -8.265625 C 16.390625 -6.578125 16.078125 -5.082031 15.453125 -3.78125 C 14.828125 -2.488281 13.960938 -1.476562 12.859375 -0.75 C 11.753906 -0.0195312 10.484375 0.34375 9.046875 0.34375 Z M 9.046875 -1.421875 C 10.203125 -1.421875 11.179688 -1.734375 11.984375 -2.359375 C 12.796875 -2.984375 13.410156 -3.8125 13.828125 -4.84375 C 14.242188 -5.882812 14.453125 -7.023438 14.453125 -8.265625 C 14.453125 -9.515625 14.242188 -10.660156 13.828125 -11.703125 C 13.410156 -12.742188 12.796875 -13.578125 11.984375 -14.203125 C 11.179688 -14.835938 10.203125 -15.15625 9.046875 -15.15625 C 7.890625 -15.15625 6.90625 -14.835938 6.09375 -14.203125 C 5.289062 -13.578125 4.679688 -12.742188 4.265625 -11.703125 C 3.847656 -10.660156 3.640625 -9.515625 3.640625 -8.265625 C 3.640625 -7.023438 3.847656 -5.882812 4.265625 -4.84375 C 4.679688 -3.8125 5.289062 -2.984375 6.09375 -2.359375 C 6.894531 -1.734375 7.878906 -1.421875 9.046875 -1.421875 Z M 9.046875 -1.421875" style="stroke:none"/></g></g><g style="fill:#000000;fill-opacity:1;"><g transform="translate(98.130347, 208.54365)"><path d="M 2.546875 0 L 2.546875 -16.703125 L 4.4375 -16.703125 L 4.4375 -14.125 L 4.578125 -14.125 C 4.910156 -14.96875 5.488281 -15.648438 6.3125 -16.171875 C 7.144531 -16.691406 8.085938 -16.953125 9.140625 -16.953125 C 9.296875 -16.953125 9.472656 -16.945312 9.671875 -16.9375 C 9.867188 -16.925781 10.03125 -16.914062 10.15625 -16.90625 L 10.15625 -14.953125 C 10.070312 -14.960938 9.921875 -14.976562 9.703125 -15 C 9.484375 -15.03125 9.25 -15.046875 9 -15.046875 C 8.132812 -15.046875 7.359375 -14.863281 6.671875 -14.5 C 5.992188 -14.132812 5.457031 -13.628906 5.0625 -12.984375 C 4.675781 -12.335938 4.484375 -11.601562 4.484375 -10.78125 L 4.484375 0 Z M 2.546875 0" style="stroke:none"/></g></g><g style="fill:#000000;fill-opacity:1;"><g transform="translate(109.043496, 208.54365)"><path d="M 4.3125 -6.296875 L 4.296875 -8.84375 L 4.734375 -8.84375 L 12.546875 -16.703125 L 15 -16.703125 L 7.265625 -8.953125 L 7.09375 -8.921875 Z M 2.546875 0 L 2.546875 -22.265625 L 4.484375 -22.265625 L 4.484375 0 Z M 12.953125 0 L 6.171875 -8.578125 L 7.5625 -9.90625 L 15.4375 0 Z M 12.953125 0" style="stroke:none"/></g></g><g style="fill:#000000;fill-opacity:1;"><g transform="translate(125.119743, 208.54365)"><path d="M 9.421875 -16.703125 L 9.421875 -15.015625 L 1.21875 -15.015625 L 1.21875 -16.703125 Z M 3.78125 0 L 3.78125 -19.140625 C 3.78125 -20.035156 3.988281 -20.789062 4.40625 -21.40625 C 4.820312 -22.03125 5.363281 -22.5 6.03125 -22.8125 C 6.707031 -23.132812 7.425781 -23.296875 8.1875 -23.296875 C 8.695312 -23.296875 9.117188 -23.253906 9.453125 -23.171875 C 9.785156 -23.085938 10.050781 -23.003906 10.25 -22.921875 L 9.6875 -21.234375 C 9.539062 -21.273438 9.363281 -21.320312 9.15625 -21.375 C 8.945312 -21.4375 8.679688 -21.46875 8.359375 -21.46875 C 7.515625 -21.46875 6.863281 -21.226562 6.40625 -20.75 C 5.957031 -20.28125 5.734375 -19.609375 5.734375 -18.734375 L 5.71875 0 Z M 3.78125 0" style="stroke:none"/></g></g><g style="fill:#000000;fill-opacity:1;"><g transform="translate(135.858985, 208.54365)"><path d="M 4.484375 -22.265625 L 4.484375 0 L 2.546875 0 L 2.546875 -22.265625 Z M 4.484375 -22.265625" style="stroke:none"/></g></g><g style="fill:#000000;fill-opacity:1;"><g transform="translate(142.902535, 208.54365)"><path d="M 9.046875 0.34375 C 7.597656 0.34375 6.320312 -0.0195312 5.21875 -0.75 C 4.113281 -1.476562 3.25 -2.488281 2.625 -3.78125 C 2.007812 -5.082031 1.703125 -6.578125 1.703125 -8.265625 C 1.703125 -9.984375 2.007812 -11.488281 2.625 -12.78125 C 3.25 -14.082031 4.113281 -15.097656 5.21875 -15.828125 C 6.320312 -16.554688 7.597656 -16.921875 9.046875 -16.921875 C 10.484375 -16.921875 11.753906 -16.554688 12.859375 -15.828125 C 13.960938 -15.097656 14.828125 -14.082031 15.453125 -12.78125 C 16.078125 -11.488281 16.390625 -9.984375 16.390625 -8.265625 C 16.390625 -6.578125 16.078125 -5.082031 15.453125 -3.78125 C 14.828125 -2.488281 13.960938 -1.476562 12.859375 -0.75 C 11.753906 -0.0195312 10.484375 0.34375 9.046875 0.34375 Z M 9.046875 -1.421875 C 10.203125 -1.421875 11.179688 -1.734375 11.984375 -2.359375 C 12.796875 -2.984375 13.410156 -3.8125 13.828125 -4.84375 C 14.242188 -5.882812 14.453125 -7.023438 14.453125 -8.265625 C 14.453125 -9.515625 14.242188 -10.660156 13.828125 -11.703125 C 13.410156 -12.742188 12.796875 -13.578125 11.984375 -14.203125 C 11.179688 -14.835938 10.203125 -15.15625 9.046875 -15.15625 C 7.890625 -15.15625 6.90625 -14.835938 6.09375 -14.203125 C 5.289062 -13.578125 4.679688 -12.742188 4.265625 -11.703125 C 3.847656 -10.660156 3.640625 -9.515625 3.640625 -8.265625 C 3.640625 -7.023438 3.847656 -5.882812 4.265625 -4.84375 C 4.679688 -3.8125 5.289062 -2.984375 6.09375 -2.359375 C 6.894531 -1.734375 7.878906 -1.421875 9.046875 -1.421875 Z M 9.046875 -1.421875" style="stroke:none"/></g></g><g style="fill:#000000;fill-opacity:1;"><g transform="translate(160.424408, 208.54365)"><path d="M 6.265625 0 L 1.21875 -16.703125 L 3.265625 -16.703125 L 7.21875 -2.921875 L 7.359375 -2.921875 L 11.296875 -16.703125 L 13.359375 -16.703125 L 17.265625 -2.953125 L 17.421875 -2.953125 L 21.375 -16.703125 L 23.421875 -16.703125 L 18.375 0 L 16.375 0 L 12.421875 -13.6875 L 12.21875 -13.6875 L 8.265625 0 Z M 6.265625 0" style="stroke:none"/></g></g><g style="fill:#000000;fill-opacity:1;"><g transform="translate(185.065961, 208.54365)"><path d="" style="stroke:none"/></g></g><g style="fill:#000000;fill-opacity:1;"><g transform="translate(193.674747, 208.54365)"><path d="M 2.984375 0 L 0.859375 0 L 8.953125 -22.265625 L 11.125 -22.265625 L 19.234375 0 L 17.09375 0 L 10.125 -19.625 L 9.96875 -19.625 Z M 4.515625 -8.53125 L 15.5625 -8.53125 L 15.5625 -6.703125 L 4.515625 -6.703125 Z M 4.515625 -8.53125" style="stroke:none"/></g></g><g style="fill:#000000;fill-opacity:1;"><g transform="translate(213.761902, 208.54365)"><path d="M 13.15625 -6.375 L 13.15625 -16.703125 L 15.09375 -16.703125 L 15.09375 0 L 13.15625 0 L 13.15625 -2.765625 L 13.015625 -2.765625 C 12.617188 -1.910156 11.992188 -1.195312 11.140625 -0.625 C 10.296875 -0.0625 9.265625 0.21875 8.046875 0.21875 C 6.984375 0.21875 6.035156 -0.015625 5.203125 -0.484375 C 4.378906 -0.953125 3.726562 -1.640625 3.25 -2.546875 C 2.78125 -3.453125 2.546875 -4.5625 2.546875 -5.875 L 2.546875 -16.703125 L 4.484375 -16.703125 L 4.484375 -6 C 4.484375 -4.695312 4.867188 -3.644531 5.640625 -2.84375 C 6.410156 -2.050781 7.394531 -1.65625 8.59375 -1.65625 C 9.351562 -1.65625 10.078125 -1.835938 10.765625 -2.203125 C 11.460938 -2.566406 12.035156 -3.097656 12.484375 -3.796875 C 12.929688 -4.492188 13.15625 -5.351562 13.15625 -6.375 Z M 13.15625 -6.375" style="stroke:none"/></g></g><g style="fill:#000000;fill-opacity:1;"><g transform="translate(231.414257, 208.54365)"><path d="M 9.125 -16.703125 L 9.125 -15.015625 L 1.15625 -15.015625 L 1.15625 -16.703125 Z M 3.65625 -20.703125 L 5.59375 -20.703125 L 5.59375 -4.359375 C 5.59375 -3.660156 5.710938 -3.113281 5.953125 -2.71875 C 6.191406 -2.320312 6.503906 -2.039062 6.890625 -1.875 C 7.273438 -1.71875 7.6875 -1.640625 8.125 -1.640625 C 8.375 -1.640625 8.585938 -1.65625 8.765625 -1.6875 C 8.953125 -1.71875 9.113281 -1.753906 9.25 -1.796875 L 9.65625 -0.046875 C 9.46875 0.0234375 9.234375 0.09375 8.953125 0.15625 C 8.679688 0.21875 8.347656 0.25 7.953125 0.25 C 7.234375 0.25 6.546875 0.09375 5.890625 -0.21875 C 5.234375 -0.53125 4.695312 -0.992188 4.28125 -1.609375 C 3.863281 -2.222656 3.65625 -2.988281 3.65625 -3.90625 Z M 3.65625 -20.703125" style="stroke:none"/></g></g><g style="fill:#000000;fill-opacity:1;"><g transform="translate(242.20783, 208.54365)"><path d="M 9.046875 0.34375 C 7.597656 0.34375 6.320312 -0.0195312 5.21875 -0.75 C 4.113281 -1.476562 3.25 -2.488281 2.625 -3.78125 C 2.007812 -5.082031 1.703125 -6.578125 1.703125 -8.265625 C 1.703125 -9.984375 2.007812 -11.488281 2.625 -12.78125 C 3.25 -14.082031 4.113281 -15.097656 5.21875 -15.828125 C 6.320312 -16.554688 7.597656 -16.921875 9.046875 -16.921875 C 10.484375 -16.921875 11.753906 -16.554688 12.859375 -15.828125 C 13.960938 -15.097656 14.828125 -14.082031 15.453125 -12.78125 C 16.078125 -11.488281 16.390625 -9.984375 16.390625 -8.265625 C 16.390625 -6.578125 16.078125 -5.082031 15.453125 -3.78125 C 14.828125 -2.488281 13.960938 -1.476562 12.859375 -0.75 C 11.753906 -0.0195312 10.484375 0.34375 9.046875 0.34375 Z M 9.046875 -1.421875 C 10.203125 -1.421875 11.179688 -1.734375 11.984375 -2.359375 C 12.796875 -2.984375 13.410156 -3.8125 13.828125 -4.84375 C 14.242188 -5.882812 14.453125 -7.023438 14.453125 -8.265625 C 14.453125 -9.515625 14.242188 -10.660156 13.828125 -11.703125 C 13.410156 -12.742188 12.796875 -13.578125 11.984375 -14.203125 C 11.179688 -14.835938 10.203125 -15.15625 9.046875 -15.15625 C 7.890625 -15.15625 6.90625 -14.835938 6.09375 -14.203125 C 5.289062 -13.578125 4.679688 -12.742188 4.265625 -11.703125 C 3.847656 -10.660156 3.640625 -9.515625 3.640625 -8.265625 C 3.640625 -7.023438 3.847656 -5.882812 4.265625 -4.84375 C 4.679688 -3.8125 5.289062 -2.984375 6.09375 -2.359375 C 6.894531 -1.734375 7.878906 -1.421875 9.046875 -1.421875 Z M 9.046875 -1.421875" style="stroke:none"/></g></g><g style="fill:#000000;fill-opacity:1;"><g transform="translate(260.294967, 208.54365)"><path d="M 2.546875 6.265625 L 2.546875 -16.703125 L 4.4375 -16.703125 L 4.4375 -13.515625 L 4.65625 -13.515625 C 4.894531 -14.015625 5.21875 -14.523438 5.625 -15.046875 C 6.03125 -15.578125 6.566406 -16.019531 7.234375 -16.375 C 7.898438 -16.738281 8.742188 -16.921875 9.765625 -16.921875 C 11.148438 -16.921875 12.359375 -16.5625 13.390625 -15.84375 C 14.421875 -15.125 15.222656 -14.113281 15.796875 -12.8125 C 16.367188 -11.519531 16.65625 -10.015625 16.65625 -8.296875 C 16.65625 -6.578125 16.367188 -5.066406 15.796875 -3.765625 C 15.222656 -2.472656 14.421875 -1.460938 13.390625 -0.734375 C 12.359375 -0.015625 11.160156 0.34375 9.796875 0.34375 C 8.785156 0.34375 7.941406 0.164062 7.265625 -0.1875 C 6.585938 -0.550781 6.039062 -1 5.625 -1.53125 C 5.207031 -2.070312 4.882812 -2.59375 4.65625 -3.09375 L 4.484375 -3.09375 L 4.484375 6.265625 Z M 4.46875 -8.34375 C 4.46875 -6.988281 4.664062 -5.789062 5.0625 -4.75 C 5.46875 -3.71875 6.050781 -2.90625 6.8125 -2.3125 C 7.570312 -1.71875 8.488281 -1.421875 9.5625 -1.421875 C 10.675781 -1.421875 11.613281 -1.726562 12.375 -2.34375 C 13.132812 -2.957031 13.71875 -3.785156 14.125 -4.828125 C 14.53125 -5.867188 14.734375 -7.039062 14.734375 -8.34375 C 14.734375 -9.625 14.535156 -10.773438 14.140625 -11.796875 C 13.742188 -12.828125 13.160156 -13.644531 12.390625 -14.25 C 11.617188 -14.851562 10.675781 -15.15625 9.5625 -15.15625 C 8.476562 -15.15625 7.554688 -14.863281 6.796875 -14.28125 C 6.035156 -13.695312 5.457031 -12.894531 5.0625 -11.875 C 4.664062 -10.851562 4.46875 -9.675781 4.46875 -8.34375 Z M 4.46875 -8.34375" style="stroke:none"/></g></g><g style="fill:#000000;fill-opacity:1;"><g transform="translate(278.653843, 208.54365)"><path d="M 2.578125 0 L 2.578125 -16.703125 L 4.515625 -16.703125 L 4.515625 0 Z M 3.5625 -19.5625 C 3.164062 -19.5625 2.828125 -19.695312 2.546875 -19.96875 C 2.265625 -20.238281 2.125 -20.566406 2.125 -20.953125 C 2.125 -21.335938 2.265625 -21.664062 2.546875 -21.9375 C 2.828125 -22.207031 3.164062 -22.34375 3.5625 -22.34375 C 3.957031 -22.34375 4.296875 -22.207031 4.578125 -21.9375 C 4.867188 -21.664062 5.015625 -21.335938 5.015625 -20.953125 C 5.015625 -20.566406 4.867188 -20.238281 4.578125 -19.96875 C 4.296875 -19.695312 3.957031 -19.5625 3.5625 -19.5625 Z M 3.5625 -19.5625" style="stroke:none"/></g></g><g style="fill:#000000;fill-opacity:1;"><g transform="translate(285.751745, 208.54365)"><path d="M 4.484375 -22.265625 L 4.484375 0 L 2.546875 0 L 2.546875 -22.265625 Z M 4.484375 -22.265625" style="stroke:none"/></g></g><g style="fill:#000000;fill-opacity:1;"><g transform="translate(292.795295, 208.54365)"><path d="M 9.046875 0.34375 C 7.597656 0.34375 6.320312 -0.0195312 5.21875 -0.75 C 4.113281 -1.476562 3.25 -2.488281 2.625 -3.78125 C 2.007812 -5.082031 1.703125 -6.578125 1.703125 -8.265625 C 1.703125 -9.984375 2.007812 -11.488281 2.625 -12.78125 C 3.25 -14.082031 4.113281 -15.097656 5.21875 -15.828125 C 6.320312 -16.554688 7.597656 -16.921875 9.046875 -16.921875 C 10.484375 -16.921875 11.753906 -16.554688 12.859375 -15.828125 C 13.960938 -15.097656 14.828125 -14.082031 15.453125 -12.78125 C 16.078125 -11.488281 16.390625 -9.984375 16.390625 -8.265625 C 16.390625 -6.578125 16.078125 -5.082031 15.453125 -3.78125 C 14.828125 -2.488281 13.960938 -1.476562 12.859375 -0.75 C 11.753906 -0.0195312 10.484375 0.34375 9.046875 0.34375 Z M 9.046875 -1.421875 C 10.203125 -1.421875 11.179688 -1.734375 11.984375 -2.359375 C 12.796875 -2.984375 13.410156 -3.8125 13.828125 -4.84375 C 14.242188 -5.882812 14.453125 -7.023438 14.453125 -8.265625 C 14.453125 -9.515625 14.242188 -10.660156 13.828125 -11.703125 C 13.410156 -12.742188 12.796875 -13.578125 11.984375 -14.203125 C 11.179688 -14.835938 10.203125 -15.15625 9.046875 -15.15625 C 7.890625 -15.15625 6.90625 -14.835938 6.09375 -14.203125 C 5.289062 -13.578125 4.679688 -12.742188 4.265625 -11.703125 C 3.847656 -10.660156 3.640625 -9.515625 3.640625 -8.265625 C 3.640625 -7.023438 3.847656 -5.882812 4.265625 -4.84375 C 4.679688 -3.8125 5.289062 -2.984375 6.09375 -2.359375 C 6.894531 -1.734375 7.878906 -1.421875 9.046875 -1.421875 Z M 9.046875 -1.421875" style="stroke:none"/></g></g><g style="fill:#000000;fill-opacity:1;"><g transform="translate(310.882432, 208.54365)"><path d="M 9.125 -16.703125 L 9.125 -15.015625 L 1.15625 -15.015625 L 1.15625 -16.703125 Z M 3.65625 -20.703125 L 5.59375 -20.703125 L 5.59375 -4.359375 C 5.59375 -3.660156 5.710938 -3.113281 5.953125 -2.71875 C 6.191406 -2.320312 6.503906 -2.039062 6.890625 -1.875 C 7.273438 -1.71875 7.6875 -1.640625 8.125 -1.640625 C 8.375 -1.640625 8.585938 -1.65625 8.765625 -1.6875 C 8.953125 -1.71875 9.113281 -1.753906 9.25 -1.796875 L 9.65625 -0.046875 C 9.46875 0.0234375 9.234375 0.09375 8.953125 0.15625 C 8.679688 0.21875 8.347656 0.25 7.953125 0.25 C 7.234375 0.25 6.546875 0.09375 5.890625 -0.21875 C 5.234375 -0.53125 4.695312 -0.992188 4.28125 -1.609375 C 3.863281 -2.222656 3.65625 -2.988281 3.65625 -3.90625 Z M 3.65625 -20.703125" style="stroke:none"/></g></g></g></svg>